<mxfile host="app.diagrams.net" modified="2024-07-15T17:09:50.970Z" agent="Mozilla/5.0 (Macintosh; Intel Mac OS X 10_15_7) AppleWebKit/537.36 (KHTML, like Gecko) Chrome/120.0.0.0 Safari/537.36" etag="ocutEeWjqbWK1zL_AYQW" version="24.6.5" type="device">
  <diagram name="Page-1" id="FS7IFVuA1vIolX4sK2E3">
    <mxGraphModel dx="1314" dy="772" grid="1" gridSize="10" guides="1" tooltips="1" connect="1" arrows="1" fold="1" page="1" pageScale="1" pageWidth="2336" pageHeight="1654" math="0" shadow="0">
      <root>
        <mxCell id="0" />
        <mxCell id="1" parent="0" />
        <mxCell id="v_Z3cCieF8YGAFD-AxJz-1" value="&lt;h1 style=&quot;margin-top: 0px;&quot;&gt;&lt;span style=&quot;background-color: initial;&quot;&gt;Java Spring Boot and Framework&lt;/span&gt;&lt;/h1&gt;&lt;h1 style=&quot;margin-top: 0px; font-size: 18px;&quot;&gt;&lt;span style=&quot;font-weight: normal;&quot;&gt;&lt;font style=&quot;font-size: 18px;&quot;&gt;Spring Boot &lt;/font&gt;&lt;span style=&quot;&quot;&gt;is&amp;nbsp;&lt;/span&gt;&lt;span style=&quot;--tw-border-spacing-x: 0; --tw-border-spacing-y: 0; --tw-translate-x: 0; --tw-translate-y: 0; --tw-rotate: 0; --tw-skew-x: 0; --tw-skew-y: 0; --tw-scale-x: 1; --tw-scale-y: 1; --tw-pan-x: ; --tw-pan-y: ; --tw-pinch-zoom: ; --tw-scroll-snap-strictness: proximity; --tw-gradient-from-position: ; --tw-gradient-via-position: ; --tw-gradient-to-position: ; --tw-ordinal: ; --tw-slashed-zero: ; --tw-numeric-figure: ; --tw-numeric-spacing: ; --tw-numeric-fraction: ; --tw-ring-inset: ; --tw-ring-offset-width: 0px; --tw-ring-offset-color: #fff; --tw-ring-color: rgb(59 130 246 / .5); --tw-ring-offset-shadow: 0 0 #0000; --tw-ring-shadow: 0 0 #0000; --tw-shadow: 0 0 #0000; --tw-shadow-colored: 0 0 #0000; --tw-blur: ; --tw-brightness: ; --tw-contrast: ; --tw-grayscale: ; --tw-hue-rotate: ; --tw-invert: ; --tw-saturate: ; --tw-sepia: ; --tw-drop-shadow: ; --tw-backdrop-blur: ; --tw-backdrop-brightness: ; --tw-backdrop-contrast: ; --tw-backdrop-grayscale: ; --tw-backdrop-hue-rotate: ; --tw-backdrop-invert: ; --tw-backdrop-opacity: ; --tw-backdrop-saturate: ; --tw-backdrop-sepia: ; font-family: arial, sans-serif; background-color: rgb(255, 255, 255);&quot;&gt;an open-source Java framework used to create a &lt;/span&gt;&lt;span style=&quot;--tw-border-spacing-x: 0; --tw-border-spacing-y: 0; --tw-translate-x: 0; --tw-translate-y: 0; --tw-rotate: 0; --tw-skew-x: 0; --tw-skew-y: 0; --tw-scale-x: 1; --tw-scale-y: 1; --tw-pan-x: ; --tw-pan-y: ; --tw-pinch-zoom: ; --tw-scroll-snap-strictness: proximity; --tw-gradient-from-position: ; --tw-gradient-via-position: ; --tw-gradient-to-position: ; --tw-ordinal: ; --tw-slashed-zero: ; --tw-numeric-figure: ; --tw-numeric-spacing: ; --tw-numeric-fraction: ; --tw-ring-inset: ; --tw-ring-offset-width: 0px; --tw-ring-offset-color: #fff; --tw-ring-color: rgb(59 130 246 / .5); --tw-ring-offset-shadow: 0 0 #0000; --tw-ring-shadow: 0 0 #0000; --tw-shadow: 0 0 #0000; --tw-shadow-colored: 0 0 #0000; --tw-blur: ; --tw-brightness: ; --tw-contrast: ; --tw-grayscale: ; --tw-hue-rotate: ; --tw-invert: ; --tw-saturate: ; --tw-sepia: ; --tw-drop-shadow: ; --tw-backdrop-blur: ; --tw-backdrop-brightness: ; --tw-backdrop-contrast: ; --tw-backdrop-grayscale: ; --tw-backdrop-hue-rotate: ; --tw-backdrop-invert: ; --tw-backdrop-opacity: ; --tw-backdrop-saturate: ; --tw-backdrop-sepia: ; font-family: arial, sans-serif; background-color: rgb(255, 255, 255);&quot;&gt;&lt;font style=&quot;font-size: 18px;&quot;&gt;MicroService&lt;/font&gt;&lt;/span&gt;&lt;/span&gt;&lt;/h1&gt;&lt;div&gt;&lt;span style=&quot;font-weight: normal;&quot;&gt;&lt;span style=&quot;--tw-border-spacing-x: 0; --tw-border-spacing-y: 0; --tw-translate-x: 0; --tw-translate-y: 0; --tw-rotate: 0; --tw-skew-x: 0; --tw-skew-y: 0; --tw-scale-x: 1; --tw-scale-y: 1; --tw-pan-x: ; --tw-pan-y: ; --tw-pinch-zoom: ; --tw-scroll-snap-strictness: proximity; --tw-gradient-from-position: ; --tw-gradient-via-position: ; --tw-gradient-to-position: ; --tw-ordinal: ; --tw-slashed-zero: ; --tw-numeric-figure: ; --tw-numeric-spacing: ; --tw-numeric-fraction: ; --tw-ring-inset: ; --tw-ring-offset-width: 0px; --tw-ring-offset-color: #fff; --tw-ring-color: rgb(59 130 246 / .5); --tw-ring-offset-shadow: 0 0 #0000; --tw-ring-shadow: 0 0 #0000; --tw-shadow: 0 0 #0000; --tw-shadow-colored: 0 0 #0000; --tw-blur: ; --tw-brightness: ; --tw-contrast: ; --tw-grayscale: ; --tw-hue-rotate: ; --tw-invert: ; --tw-saturate: ; --tw-sepia: ; --tw-drop-shadow: ; --tw-backdrop-blur: ; --tw-backdrop-brightness: ; --tw-backdrop-contrast: ; --tw-backdrop-grayscale: ; --tw-backdrop-hue-rotate: ; --tw-backdrop-invert: ; --tw-backdrop-opacity: ; --tw-backdrop-saturate: ; --tw-backdrop-sepia: ; font-family: arial, sans-serif; background-color: rgb(255, 255, 255);&quot;&gt;&lt;font style=&quot;font-size: 18px;&quot;&gt;Key Features:&lt;/font&gt;&lt;/span&gt;&lt;/span&gt;&lt;/div&gt;&lt;div&gt;&lt;ul style=&quot;font-size: medium;&quot; class=&quot;ul1&quot;&gt;&lt;li style=&quot;margin: 0px; font-variant-numeric: normal; font-variant-east-asian: normal; font-variant-alternates: normal; font-kerning: auto; font-optical-sizing: auto; font-feature-settings: normal; font-variation-settings: normal; font-variant-position: normal; font-stretch: normal; font-size: 16px; line-height: normal; -webkit-text-stroke: rgb(0, 0, 0);&quot; class=&quot;li1&quot;&gt;&lt;span style=&quot;background-color: rgb(255, 255, 255);&quot; class=&quot;s1&quot;&gt;&lt;/span&gt;&lt;span style=&quot;font-kerning: none; background-color: rgb(255, 255, 255);&quot; class=&quot;s2&quot;&gt;Create &lt;b&gt;stand-alone&lt;/b&gt; Spring applications&lt;/span&gt;&lt;/li&gt;&lt;li style=&quot;margin: 0px; font-variant-numeric: normal; font-variant-east-asian: normal; font-variant-alternates: normal; font-kerning: auto; font-optical-sizing: auto; font-feature-settings: normal; font-variation-settings: normal; font-variant-position: normal; font-stretch: normal; font-size: 16px; line-height: normal; -webkit-text-stroke: rgb(0, 0, 0);&quot; class=&quot;li1&quot;&gt;&lt;span style=&quot;background-color: rgb(255, 255, 255);&quot; class=&quot;s3&quot;&gt;&lt;/span&gt;&lt;span style=&quot;font-kerning: none; background-color: rgb(255, 255, 255);&quot; class=&quot;s2&quot;&gt;&lt;b&gt;Embed&lt;/b&gt; Tomcat, Jetty, or Undertow directly (no need to deploy WAR files)&lt;/span&gt;&lt;/li&gt;&lt;li style=&quot;margin: 0px; font-variant-numeric: normal; font-variant-east-asian: normal; font-variant-alternates: normal; font-kerning: auto; font-optical-sizing: auto; font-feature-settings: normal; font-variation-settings: normal; font-variant-position: normal; font-stretch: normal; font-size: 16px; line-height: normal; -webkit-text-stroke: rgb(0, 0, 0);&quot; class=&quot;li1&quot;&gt;&lt;span style=&quot;background-color: rgb(255, 255, 255);&quot; class=&quot;s3&quot;&gt;&lt;/span&gt;&lt;span style=&quot;font-kerning: none; background-color: rgb(255, 255, 255);&quot; class=&quot;s2&quot;&gt;Provide opinionated &#39;&lt;b&gt;starter&lt;/b&gt;&#39; dependencies to &lt;b&gt;simplify your build&lt;/b&gt; configuration&lt;/span&gt;&lt;/li&gt;&lt;li style=&quot;margin: 0px; font-variant-numeric: normal; font-variant-east-asian: normal; font-variant-alternates: normal; font-kerning: auto; font-optical-sizing: auto; font-feature-settings: normal; font-variation-settings: normal; font-variant-position: normal; font-stretch: normal; font-size: 16px; line-height: normal; -webkit-text-stroke: rgb(0, 0, 0);&quot; class=&quot;li1&quot;&gt;&lt;span style=&quot;background-color: rgb(255, 255, 255);&quot; class=&quot;s3&quot;&gt;&lt;/span&gt;&lt;span style=&quot;font-kerning: none; background-color: rgb(255, 255, 255);&quot; class=&quot;s2&quot;&gt;&lt;b&gt;Automatically configure&lt;/b&gt; Spring and &lt;b&gt;third-party libraries&lt;/b&gt; whenever possible&lt;/span&gt;&lt;/li&gt;&lt;li style=&quot;margin: 0px; font-variant-numeric: normal; font-variant-east-asian: normal; font-variant-alternates: normal; font-kerning: auto; font-optical-sizing: auto; font-feature-settings: normal; font-variation-settings: normal; font-variant-position: normal; font-stretch: normal; font-size: 16px; line-height: normal; -webkit-text-stroke: rgb(0, 0, 0);&quot; class=&quot;li1&quot;&gt;&lt;span style=&quot;background-color: rgb(255, 255, 255);&quot; class=&quot;s3&quot;&gt;&lt;/span&gt;&lt;span style=&quot;font-kerning: none; background-color: rgb(255, 255, 255);&quot; class=&quot;s2&quot;&gt;&lt;b&gt;Provide production-ready features&lt;/b&gt; such as &lt;b&gt;metrics, health checks&lt;/b&gt;, and externalized configuration&lt;/span&gt;&lt;/li&gt;&lt;/ul&gt;&lt;div&gt;&lt;span style=&quot;font-size: 16px;&quot;&gt;Spring Framework:&amp;nbsp;&lt;/span&gt;&lt;/div&gt;&lt;/div&gt;&lt;ul style=&quot;&quot; class=&quot;ul1&quot;&gt;&lt;li style=&quot;font-size: 16px; margin: 0px; font-variant-numeric: normal; font-variant-east-asian: normal; font-variant-alternates: normal; font-kerning: auto; font-optical-sizing: auto; font-feature-settings: normal; font-variation-settings: normal; font-variant-position: normal; font-stretch: normal; line-height: normal; -webkit-text-stroke: rgb(0, 0, 0);&quot; class=&quot;li1&quot;&gt;&lt;span style=&quot;color: rgb(14, 86, 182); background-color: rgb(255, 255, 255);&quot; class=&quot;s1&quot;&gt;&lt;a href=&quot;https://docs.spring.io/spring-framework/reference/core.html&quot;&gt;&lt;span style=&quot;font-kerning: none; -webkit-text-stroke-color: rgb(14, 86, 182);&quot; class=&quot;s2&quot;&gt;Core technologies&lt;/span&gt;&lt;/a&gt;&lt;/span&gt;&lt;span style=&quot;font-kerning: none; background-color: rgb(255, 255, 255);&quot; class=&quot;s3&quot;&gt;: dependency injection, events, resources, i18n, validation, data binding, type conversion, SpEL, AOP.&lt;/span&gt;&lt;/li&gt;&lt;li style=&quot;margin: 0px; font-variant-numeric: normal; font-variant-east-asian: normal; font-variant-alternates: normal; font-kerning: auto; font-optical-sizing: auto; font-feature-settings: normal; font-variation-settings: normal; font-variant-position: normal; font-stretch: normal; line-height: normal; -webkit-text-stroke-width: initial;&quot; class=&quot;li1&quot;&gt;&lt;span style=&quot;font-size: 16px; -webkit-text-stroke-color: rgb(0, 0, 0); color: rgb(14, 86, 182); background-color: rgb(255, 255, 255);&quot; class=&quot;s4&quot;&gt;&lt;a href=&quot;https://docs.spring.io/spring-framework/reference/testing.html#testing&quot;&gt;&lt;span style=&quot;font-kerning: none; -webkit-text-stroke-color: rgb(14, 86, 182);&quot; class=&quot;s2&quot;&gt;Testing&lt;/span&gt;&lt;/a&gt;&lt;/span&gt;&lt;span style=&quot;font-kerning: none; background-color: rgb(255, 255, 255);&quot; class=&quot;s3&quot;&gt;&lt;span style=&quot;font-size: 16px;&quot;&gt;: mock objects, TestContext framework, Spring MVC Test, WebTestClient&lt;/span&gt;&lt;/span&gt;&lt;span style=&quot;font-size: 16px; -webkit-text-stroke-color: rgb(0, 0, 0); font-kerning: none; background-color: rgb(255, 255, 255);&quot; class=&quot;s3&quot;&gt;.&lt;/span&gt;&lt;/li&gt;&lt;li style=&quot;font-size: 16px; margin: 0px; font-variant-numeric: normal; font-variant-east-asian: normal; font-variant-alternates: normal; font-kerning: auto; font-optical-sizing: auto; font-feature-settings: normal; font-variation-settings: normal; font-variant-position: normal; font-stretch: normal; line-height: normal; -webkit-text-stroke: rgb(0, 0, 0);&quot; class=&quot;li1&quot;&gt;&lt;span style=&quot;color: rgb(14, 86, 182); background-color: rgb(255, 255, 255);&quot; class=&quot;s4&quot;&gt;&lt;a href=&quot;https://docs.spring.io/spring-framework/reference/data-access.html&quot;&gt;&lt;span style=&quot;font-kerning: none; -webkit-text-stroke-color: rgb(14, 86, 182);&quot; class=&quot;s2&quot;&gt;Data Access&lt;/span&gt;&lt;/a&gt;&lt;/span&gt;&lt;span style=&quot;font-kerning: none; background-color: rgb(255, 255, 255);&quot; class=&quot;s3&quot;&gt;: transactions, DAO support, JDBC, ORM, Marshalling XML.&lt;/span&gt;&lt;/li&gt;&lt;li style=&quot;font-size: 16px; margin: 0px; font-variant-numeric: normal; font-variant-east-asian: normal; font-variant-alternates: normal; font-kerning: auto; font-optical-sizing: auto; font-feature-settings: normal; font-variation-settings: normal; font-variant-position: normal; font-stretch: normal; line-height: normal; color: rgb(14, 86, 182); -webkit-text-stroke: rgb(0, 0, 0);&quot; class=&quot;li2&quot;&gt;&lt;span style=&quot;background-color: rgb(255, 255, 255);&quot; class=&quot;s6&quot;&gt;&lt;a href=&quot;https://docs.spring.io/spring-framework/reference/web.html&quot;&gt;&lt;span style=&quot;font-kerning: none; -webkit-text-stroke-color: rgb(14, 86, 182);&quot; class=&quot;s2&quot;&gt;Spring MVC&lt;/span&gt;&lt;/a&gt;&lt;/span&gt;&lt;span style=&quot;font-kerning: none; color: rgb(0, 0, 0); background-color: rgb(255, 255, 255);&quot; class=&quot;s7&quot;&gt;&amp;nbsp;and&amp;nbsp;&lt;a href=&quot;https://docs.spring.io/spring-framework/reference/web-reactive.html&quot;&gt;&lt;span style=&quot;font-kerning: none; -webkit-text-stroke-color: rgb(14, 86, 182);&quot; class=&quot;s2&quot;&gt;Spring WebFlux&lt;/span&gt;&lt;/a&gt;&amp;nbsp;web frameworks.&lt;/span&gt;&lt;/li&gt;&lt;li style=&quot;font-size: 16px; margin: 0px; font-variant-numeric: normal; font-variant-east-asian: normal; font-variant-alternates: normal; font-kerning: auto; font-optical-sizing: auto; font-feature-settings: normal; font-variation-settings: normal; font-variant-position: normal; font-stretch: normal; line-height: normal; -webkit-text-stroke: rgb(0, 0, 0);&quot; class=&quot;li1&quot;&gt;&lt;span style=&quot;color: rgb(14, 86, 182); background-color: rgb(255, 255, 255);&quot; class=&quot;s4&quot;&gt;&lt;a href=&quot;https://docs.spring.io/spring-framework/reference/integration.html&quot;&gt;&lt;span style=&quot;font-kerning: none; -webkit-text-stroke-color: rgb(14, 86, 182);&quot; class=&quot;s2&quot;&gt;Integration&lt;/span&gt;&lt;/a&gt;&lt;/span&gt;&lt;span style=&quot;font-kerning: none; background-color: rgb(255, 255, 255);&quot; class=&quot;s3&quot;&gt;: remoting, JMS, JCA, JMX, email, tasks, scheduling, cache and observability.&lt;/span&gt;&lt;/li&gt;&lt;li style=&quot;font-size: 16px; margin: 0px; font-variant-numeric: normal; font-variant-east-asian: normal; font-variant-alternates: normal; font-kerning: auto; font-optical-sizing: auto; font-feature-settings: normal; font-variation-settings: normal; font-variant-position: normal; font-stretch: normal; line-height: normal; -webkit-text-stroke: rgb(0, 0, 0); background-color: rgb(255, 255, 255);&quot; class=&quot;li3&quot;&gt;&lt;span style=&quot;color: rgb(14, 86, 182);&quot; class=&quot;s8&quot;&gt;&lt;a href=&quot;https://docs.spring.io/spring-framework/reference/languages.html&quot;&gt;&lt;span style=&quot;font-kerning: none; -webkit-text-stroke-color: rgb(14, 86, 182);&quot; class=&quot;s2&quot;&gt;Languages&lt;/span&gt;&lt;/a&gt;&lt;/span&gt;&lt;span style=&quot;font-kerning: none;&quot; class=&quot;s9&quot;&gt;: Kotlin, Groovy, and dynamic languages&lt;/span&gt;&lt;/li&gt;&lt;/ul&gt;&lt;div&gt;&lt;span style=&quot;font-size: 16px;&quot;&gt;&lt;br&gt;&lt;/span&gt;&lt;/div&gt;" style="text;html=1;whiteSpace=wrap;overflow=hidden;rounded=0;fillColor=#d5e8d4;strokeColor=#82b366;gradientColor=none;" parent="1" vertex="1">
          <mxGeometry x="30" y="40" width="860" height="430" as="geometry" />
        </mxCell>
        <mxCell id="v_Z3cCieF8YGAFD-AxJz-18" value="" style="edgeStyle=orthogonalEdgeStyle;rounded=0;orthogonalLoop=1;jettySize=auto;html=1;" parent="1" source="v_Z3cCieF8YGAFD-AxJz-2" target="v_Z3cCieF8YGAFD-AxJz-17" edge="1">
          <mxGeometry relative="1" as="geometry" />
        </mxCell>
        <mxCell id="v_Z3cCieF8YGAFD-AxJz-2" value="&lt;b&gt;Spring Data&lt;/b&gt;" style="rounded=0;whiteSpace=wrap;html=1;fillColor=#d0cee2;strokeColor=#56517e;" parent="1" vertex="1">
          <mxGeometry x="30" y="490" width="140" height="30" as="geometry" />
        </mxCell>
        <mxCell id="v_Z3cCieF8YGAFD-AxJz-24" value="" style="edgeStyle=orthogonalEdgeStyle;rounded=0;orthogonalLoop=1;jettySize=auto;html=1;" parent="1" source="v_Z3cCieF8YGAFD-AxJz-5" target="v_Z3cCieF8YGAFD-AxJz-23" edge="1">
          <mxGeometry relative="1" as="geometry" />
        </mxCell>
        <mxCell id="v_Z3cCieF8YGAFD-AxJz-5" value="&lt;b&gt;Spring Cloud&lt;/b&gt;" style="rounded=0;whiteSpace=wrap;html=1;fillColor=#b1ddf0;strokeColor=#10739e;" parent="1" vertex="1">
          <mxGeometry x="30" y="580" width="140" height="30" as="geometry" />
        </mxCell>
        <mxCell id="v_Z3cCieF8YGAFD-AxJz-51" value="" style="edgeStyle=orthogonalEdgeStyle;rounded=0;orthogonalLoop=1;jettySize=auto;html=1;" parent="1" source="v_Z3cCieF8YGAFD-AxJz-6" target="v_Z3cCieF8YGAFD-AxJz-50" edge="1">
          <mxGeometry relative="1" as="geometry" />
        </mxCell>
        <mxCell id="v_Z3cCieF8YGAFD-AxJz-6" value="Spring Security" style="rounded=0;whiteSpace=wrap;html=1;fillColor=#f8cecc;strokeColor=#b85450;" parent="1" vertex="1">
          <mxGeometry x="30" y="670" width="140" height="30" as="geometry" />
        </mxCell>
        <mxCell id="v_Z3cCieF8YGAFD-AxJz-59" value="" style="edgeStyle=orthogonalEdgeStyle;rounded=0;orthogonalLoop=1;jettySize=auto;html=1;" parent="1" source="v_Z3cCieF8YGAFD-AxJz-7" target="v_Z3cCieF8YGAFD-AxJz-57" edge="1">
          <mxGeometry relative="1" as="geometry" />
        </mxCell>
        <mxCell id="v_Z3cCieF8YGAFD-AxJz-7" value="Spring GraphQL" style="rounded=0;whiteSpace=wrap;html=1;fillColor=#e1d5e7;strokeColor=#9673a6;" parent="1" vertex="1">
          <mxGeometry x="30" y="750" width="140" height="30" as="geometry" />
        </mxCell>
        <mxCell id="v_Z3cCieF8YGAFD-AxJz-88" value="" style="edgeStyle=orthogonalEdgeStyle;rounded=0;orthogonalLoop=1;jettySize=auto;html=1;" parent="1" source="v_Z3cCieF8YGAFD-AxJz-8" target="v_Z3cCieF8YGAFD-AxJz-87" edge="1">
          <mxGeometry relative="1" as="geometry" />
        </mxCell>
        <mxCell id="v_Z3cCieF8YGAFD-AxJz-8" value="Spring HATEOAS" style="rounded=0;whiteSpace=wrap;html=1;" parent="1" vertex="1">
          <mxGeometry x="30" y="1515" width="140" height="25" as="geometry" />
        </mxCell>
        <mxCell id="v_Z3cCieF8YGAFD-AxJz-91" value="" style="edgeStyle=orthogonalEdgeStyle;rounded=0;orthogonalLoop=1;jettySize=auto;html=1;" parent="1" source="v_Z3cCieF8YGAFD-AxJz-9" target="v_Z3cCieF8YGAFD-AxJz-90" edge="1">
          <mxGeometry relative="1" as="geometry" />
        </mxCell>
        <mxCell id="v_Z3cCieF8YGAFD-AxJz-9" value="Spring AI" style="rounded=0;whiteSpace=wrap;html=1;fillColor=#1ba1e2;fontColor=#ffffff;strokeColor=#006EAF;" parent="1" vertex="1">
          <mxGeometry x="30" y="960" width="140" height="30" as="geometry" />
        </mxCell>
        <mxCell id="v_Z3cCieF8YGAFD-AxJz-110" value="" style="edgeStyle=orthogonalEdgeStyle;rounded=0;orthogonalLoop=1;jettySize=auto;html=1;" parent="1" source="v_Z3cCieF8YGAFD-AxJz-10" target="v_Z3cCieF8YGAFD-AxJz-109" edge="1">
          <mxGeometry relative="1" as="geometry" />
        </mxCell>
        <mxCell id="v_Z3cCieF8YGAFD-AxJz-10" value="Spring Apache Kafka" style="rounded=0;whiteSpace=wrap;html=1;fillColor=#e3c800;fontColor=#000000;strokeColor=#B09500;" parent="1" vertex="1">
          <mxGeometry x="30" y="1070" width="140" height="30" as="geometry" />
        </mxCell>
        <mxCell id="v_Z3cCieF8YGAFD-AxJz-135" value="" style="edgeStyle=orthogonalEdgeStyle;rounded=0;orthogonalLoop=1;jettySize=auto;html=1;" parent="1" source="v_Z3cCieF8YGAFD-AxJz-11" target="v_Z3cCieF8YGAFD-AxJz-134" edge="1">
          <mxGeometry relative="1" as="geometry" />
        </mxCell>
        <mxCell id="v_Z3cCieF8YGAFD-AxJz-11" value="Spring Web Flow" style="rounded=0;whiteSpace=wrap;html=1;" parent="1" vertex="1">
          <mxGeometry x="30" y="1360" width="140" height="30" as="geometry" />
        </mxCell>
        <mxCell id="v_Z3cCieF8YGAFD-AxJz-139" value="" style="edgeStyle=orthogonalEdgeStyle;rounded=0;orthogonalLoop=1;jettySize=auto;html=1;" parent="1" source="v_Z3cCieF8YGAFD-AxJz-12" target="v_Z3cCieF8YGAFD-AxJz-138" edge="1">
          <mxGeometry relative="1" as="geometry" />
        </mxCell>
        <mxCell id="v_Z3cCieF8YGAFD-AxJz-12" value="Spring Web Services" style="rounded=0;whiteSpace=wrap;html=1;" parent="1" vertex="1">
          <mxGeometry x="30" y="1410" width="140" height="30" as="geometry" />
        </mxCell>
        <mxCell id="v_Z3cCieF8YGAFD-AxJz-141" value="" style="edgeStyle=orthogonalEdgeStyle;rounded=0;orthogonalLoop=1;jettySize=auto;html=1;" parent="1" source="v_Z3cCieF8YGAFD-AxJz-13" target="v_Z3cCieF8YGAFD-AxJz-140" edge="1">
          <mxGeometry relative="1" as="geometry" />
        </mxCell>
        <mxCell id="v_Z3cCieF8YGAFD-AxJz-13" value="Spring Web Flux" style="rounded=0;whiteSpace=wrap;html=1;fillColor=#fff2cc;strokeColor=#d6b656;" parent="1" vertex="1">
          <mxGeometry x="30" y="1260" width="140" height="30" as="geometry" />
        </mxCell>
        <mxCell id="v_Z3cCieF8YGAFD-AxJz-20" value="" style="edgeStyle=orthogonalEdgeStyle;rounded=0;orthogonalLoop=1;jettySize=auto;html=1;" parent="1" source="v_Z3cCieF8YGAFD-AxJz-17" target="v_Z3cCieF8YGAFD-AxJz-19" edge="1">
          <mxGeometry relative="1" as="geometry" />
        </mxCell>
        <mxCell id="v_Z3cCieF8YGAFD-AxJz-22" value="" style="edgeStyle=orthogonalEdgeStyle;rounded=0;orthogonalLoop=1;jettySize=auto;html=1;" parent="1" source="v_Z3cCieF8YGAFD-AxJz-17" target="v_Z3cCieF8YGAFD-AxJz-21" edge="1">
          <mxGeometry relative="1" as="geometry" />
        </mxCell>
        <mxCell id="v_Z3cCieF8YGAFD-AxJz-17" value="&lt;h6 style=&quot;text-align: center; margin-top: 0px;&quot;&gt;&lt;span style=&quot;background-color: initial; font-size: 12px; font-weight: normal;&quot;&gt;Access to Database and data mapping with the model object ( Annotations and application.properties)&lt;/span&gt;&lt;/h6&gt;" style="text;html=1;whiteSpace=wrap;overflow=hidden;rounded=0;fillColor=#f5f5f5;fontColor=#333333;strokeColor=#666666;" parent="1" vertex="1">
          <mxGeometry x="280" y="490" width="600" height="30" as="geometry" />
        </mxCell>
        <mxCell id="v_Z3cCieF8YGAFD-AxJz-19" value="&lt;span style=&quot;color: rgb(31, 113, 153); font-family: &amp;quot;Source Code Pro&amp;quot;, Consolas, &amp;quot;Bitstream Vera Sans Mono&amp;quot;, &amp;quot;Courier New&amp;quot;, Courier, monospace; font-size: 14px; text-align: start; white-space-collapse: preserve; background-color: rgb(250, 250, 250);&quot;&gt;@Repository, &lt;/span&gt;&lt;span style=&quot;color: rgb(31, 113, 153); font-family: &amp;quot;Source Code Pro&amp;quot;, Consolas, &amp;quot;Bitstream Vera Sans Mono&amp;quot;, &amp;quot;Courier New&amp;quot;, Courier, monospace; font-size: 14px; text-align: start; white-space-collapse: preserve; background-color: rgb(250, 250, 250);&quot;&gt;@Transactional, @Query, Id, @Procedure, @Lock etc&lt;/span&gt;" style="shape=process;whiteSpace=wrap;html=1;backgroundOutline=1;fillColor=#d0cee2;strokeColor=#56517e;" parent="1" vertex="1">
          <mxGeometry x="920" y="460" width="720" height="30" as="geometry" />
        </mxCell>
        <mxCell id="v_Z3cCieF8YGAFD-AxJz-21" value="JDBC, JPA, LDAP, Mongo DB, Redis etc.." style="rounded=1;whiteSpace=wrap;html=1;fillColor=#d0cee2;strokeColor=#56517e;" parent="1" vertex="1">
          <mxGeometry x="920" y="500" width="720" height="30" as="geometry" />
        </mxCell>
        <mxCell id="v_Z3cCieF8YGAFD-AxJz-28" value="" style="edgeStyle=orthogonalEdgeStyle;rounded=0;orthogonalLoop=1;jettySize=auto;html=1;" parent="1" source="v_Z3cCieF8YGAFD-AxJz-23" target="v_Z3cCieF8YGAFD-AxJz-27" edge="1">
          <mxGeometry relative="1" as="geometry" />
        </mxCell>
        <mxCell id="v_Z3cCieF8YGAFD-AxJz-61" value="" style="edgeStyle=orthogonalEdgeStyle;rounded=0;orthogonalLoop=1;jettySize=auto;html=1;" parent="1" source="v_Z3cCieF8YGAFD-AxJz-23" target="v_Z3cCieF8YGAFD-AxJz-60" edge="1">
          <mxGeometry relative="1" as="geometry" />
        </mxCell>
        <mxCell id="v_Z3cCieF8YGAFD-AxJz-23" value="&lt;font style=&quot;font-size: 12px;&quot;&gt;&lt;span style=&quot;font-family: &amp;quot;Open Sans&amp;quot;, sans-serif; text-align: start;&quot;&gt;Making your code ‘cloud-native’ means dealing with&amp;nbsp;&lt;/span&gt;&lt;a style=&quot;box-sizing: inherit; color: rgb(8, 109, 195); cursor: pointer; text-decoration-line: none; display: inline-block; position: relative; font-family: &amp;quot;Open Sans&amp;quot;, sans-serif; text-align: start;&quot; name=&quot;&amp;amp;lpos=apps_scodevmw : 39&quot; href=&quot;https://12factor.net/&quot;&gt;12-factor&lt;/a&gt;&lt;span style=&quot;font-family: &amp;quot;Open Sans&amp;quot;, sans-serif; text-align: start;&quot;&gt;&amp;nbsp;issues such as external configuration, statelessness, logging, and connecting to backing services&lt;/span&gt;&lt;/font&gt;" style="rounded=0;whiteSpace=wrap;html=1;fillColor=#f5f5f5;fontColor=#333333;strokeColor=#666666;" parent="1" vertex="1">
          <mxGeometry x="280" y="580" width="600" height="30" as="geometry" />
        </mxCell>
        <mxCell id="v_Z3cCieF8YGAFD-AxJz-30" value="" style="edgeStyle=orthogonalEdgeStyle;rounded=0;orthogonalLoop=1;jettySize=auto;html=1;" parent="1" edge="1">
          <mxGeometry relative="1" as="geometry">
            <mxPoint x="1560" y="595" as="sourcePoint" />
            <mxPoint x="1700" y="595" as="targetPoint" />
          </mxGeometry>
        </mxCell>
        <mxCell id="v_Z3cCieF8YGAFD-AxJz-27" value="&lt;p style=&quot;margin: 0px; font-variant-numeric: normal; font-variant-east-asian: normal; font-variant-alternates: normal; font-kerning: auto; font-optical-sizing: auto; font-feature-settings: normal; font-variation-settings: normal; font-variant-position: normal; font-stretch: normal; font-size: 14px; line-height: normal; -webkit-text-stroke-color: rgb(0, 0, 0); text-align: start;&quot; class=&quot;p1&quot;&gt;&lt;span style=&quot;font-kerning: none;&quot; class=&quot;s1&quot;&gt;Spring Cloud Config, Cloud GateWay, Cloud Kubernetes, Circuit Breaker, Sleuth,&lt;span class=&quot;Apple-converted-space&quot;&gt;&amp;nbsp; &lt;/span&gt;Security, Netflix, etc.&lt;/span&gt;&lt;/p&gt;" style="whiteSpace=wrap;html=1;rounded=0;fillColor=#b1ddf0;strokeColor=#10739e;" parent="1" vertex="1">
          <mxGeometry x="920" y="595" width="720" height="30" as="geometry" />
        </mxCell>
        <mxCell id="v_Z3cCieF8YGAFD-AxJz-37" value="" style="edgeStyle=orthogonalEdgeStyle;rounded=0;orthogonalLoop=1;jettySize=auto;html=1;" parent="1" source="v_Z3cCieF8YGAFD-AxJz-31" target="v_Z3cCieF8YGAFD-AxJz-34" edge="1">
          <mxGeometry relative="1" as="geometry" />
        </mxCell>
        <mxCell id="v_Z3cCieF8YGAFD-AxJz-31" value="Mobile" style="rounded=0;whiteSpace=wrap;html=1;fillColor=#d5e8d4;strokeColor=#82b366;" parent="1" vertex="1">
          <mxGeometry x="1700" y="580" width="120" height="20" as="geometry" />
        </mxCell>
        <mxCell id="v_Z3cCieF8YGAFD-AxJz-35" value="" style="edgeStyle=orthogonalEdgeStyle;rounded=0;orthogonalLoop=1;jettySize=auto;html=1;" parent="1" source="v_Z3cCieF8YGAFD-AxJz-32" target="v_Z3cCieF8YGAFD-AxJz-34" edge="1">
          <mxGeometry relative="1" as="geometry" />
        </mxCell>
        <mxCell id="v_Z3cCieF8YGAFD-AxJz-32" value="IoT" style="rounded=0;whiteSpace=wrap;html=1;fillColor=#d5e8d4;strokeColor=#82b366;" parent="1" vertex="1">
          <mxGeometry x="1700" y="550" width="120" height="20" as="geometry" />
        </mxCell>
        <mxCell id="v_Z3cCieF8YGAFD-AxJz-36" value="" style="edgeStyle=orthogonalEdgeStyle;rounded=0;orthogonalLoop=1;jettySize=auto;html=1;" parent="1" source="v_Z3cCieF8YGAFD-AxJz-33" target="v_Z3cCieF8YGAFD-AxJz-34" edge="1">
          <mxGeometry relative="1" as="geometry" />
        </mxCell>
        <mxCell id="v_Z3cCieF8YGAFD-AxJz-33" value="Browser" style="rounded=0;whiteSpace=wrap;html=1;fillColor=#d5e8d4;strokeColor=#82b366;" parent="1" vertex="1">
          <mxGeometry x="1700" y="610" width="120" height="20" as="geometry" />
        </mxCell>
        <mxCell id="v_Z3cCieF8YGAFD-AxJz-39" value="" style="edgeStyle=orthogonalEdgeStyle;rounded=0;orthogonalLoop=1;jettySize=auto;html=1;" parent="1" source="v_Z3cCieF8YGAFD-AxJz-34" target="v_Z3cCieF8YGAFD-AxJz-38" edge="1">
          <mxGeometry relative="1" as="geometry" />
        </mxCell>
        <mxCell id="v_Z3cCieF8YGAFD-AxJz-41" value="" style="edgeStyle=orthogonalEdgeStyle;rounded=0;orthogonalLoop=1;jettySize=auto;html=1;" parent="1" source="v_Z3cCieF8YGAFD-AxJz-34" target="v_Z3cCieF8YGAFD-AxJz-40" edge="1">
          <mxGeometry relative="1" as="geometry" />
        </mxCell>
        <mxCell id="v_Z3cCieF8YGAFD-AxJz-43" value="" style="edgeStyle=orthogonalEdgeStyle;rounded=0;orthogonalLoop=1;jettySize=auto;html=1;" parent="1" source="v_Z3cCieF8YGAFD-AxJz-34" target="v_Z3cCieF8YGAFD-AxJz-42" edge="1">
          <mxGeometry relative="1" as="geometry" />
        </mxCell>
        <mxCell id="v_Z3cCieF8YGAFD-AxJz-34" value="Api Gateway" style="shape=process;whiteSpace=wrap;html=1;backgroundOutline=1;rounded=0;fillColor=#dae8fc;strokeColor=#6c8ebf;" parent="1" vertex="1">
          <mxGeometry x="1880" y="560" width="120" height="60" as="geometry" />
        </mxCell>
        <mxCell id="v_Z3cCieF8YGAFD-AxJz-38" value="Service Registry" style="whiteSpace=wrap;html=1;rounded=0;fillColor=#ffe6cc;strokeColor=#d79b00;" parent="1" vertex="1">
          <mxGeometry x="1880" y="510" width="120" height="20" as="geometry" />
        </mxCell>
        <mxCell id="v_Z3cCieF8YGAFD-AxJz-40" value="Config Server" style="whiteSpace=wrap;html=1;rounded=0;fillColor=#ffe6cc;strokeColor=#d79b00;" parent="1" vertex="1">
          <mxGeometry x="1880" y="660" width="120" height="20" as="geometry" />
        </mxCell>
        <mxCell id="v_Z3cCieF8YGAFD-AxJz-48" value="" style="edgeStyle=orthogonalEdgeStyle;rounded=0;orthogonalLoop=1;jettySize=auto;html=1;" parent="1" source="v_Z3cCieF8YGAFD-AxJz-42" target="v_Z3cCieF8YGAFD-AxJz-46" edge="1">
          <mxGeometry relative="1" as="geometry" />
        </mxCell>
        <mxCell id="v_Z3cCieF8YGAFD-AxJz-42" value="Microservices" style="whiteSpace=wrap;html=1;rounded=0;fillColor=#fff2cc;strokeColor=#d6b656;" parent="1" vertex="1">
          <mxGeometry x="2030" y="580" width="110" height="20" as="geometry" />
        </mxCell>
        <mxCell id="v_Z3cCieF8YGAFD-AxJz-49" value="" style="edgeStyle=orthogonalEdgeStyle;rounded=0;orthogonalLoop=1;jettySize=auto;html=1;" parent="1" source="v_Z3cCieF8YGAFD-AxJz-44" target="v_Z3cCieF8YGAFD-AxJz-46" edge="1">
          <mxGeometry relative="1" as="geometry" />
        </mxCell>
        <mxCell id="v_Z3cCieF8YGAFD-AxJz-44" value="Microservices" style="whiteSpace=wrap;html=1;rounded=0;fillColor=#fff2cc;strokeColor=#d6b656;" parent="1" vertex="1">
          <mxGeometry x="2040" y="590" width="110" height="20" as="geometry" />
        </mxCell>
        <mxCell id="v_Z3cCieF8YGAFD-AxJz-47" value="" style="edgeStyle=orthogonalEdgeStyle;rounded=0;orthogonalLoop=1;jettySize=auto;html=1;" parent="1" source="v_Z3cCieF8YGAFD-AxJz-45" target="v_Z3cCieF8YGAFD-AxJz-46" edge="1">
          <mxGeometry relative="1" as="geometry" />
        </mxCell>
        <mxCell id="v_Z3cCieF8YGAFD-AxJz-45" value="Microservices" style="whiteSpace=wrap;html=1;rounded=0;fillColor=#fff2cc;strokeColor=#d6b656;" parent="1" vertex="1">
          <mxGeometry x="2050" y="600" width="110" height="20" as="geometry" />
        </mxCell>
        <mxCell id="v_Z3cCieF8YGAFD-AxJz-46" value="Distributed tracing" style="whiteSpace=wrap;html=1;rounded=0;fillColor=#e1d5e7;strokeColor=#9673a6;" parent="1" vertex="1">
          <mxGeometry x="2080" y="510" width="110" height="20" as="geometry" />
        </mxCell>
        <mxCell id="v_Z3cCieF8YGAFD-AxJz-53" value="" style="edgeStyle=orthogonalEdgeStyle;rounded=0;orthogonalLoop=1;jettySize=auto;html=1;" parent="1" source="v_Z3cCieF8YGAFD-AxJz-50" target="v_Z3cCieF8YGAFD-AxJz-52" edge="1">
          <mxGeometry relative="1" as="geometry" />
        </mxCell>
        <mxCell id="v_Z3cCieF8YGAFD-AxJz-65" value="" style="edgeStyle=orthogonalEdgeStyle;rounded=0;orthogonalLoop=1;jettySize=auto;html=1;" parent="1" source="v_Z3cCieF8YGAFD-AxJz-50" target="v_Z3cCieF8YGAFD-AxJz-64" edge="1">
          <mxGeometry relative="1" as="geometry" />
        </mxCell>
        <mxCell id="v_Z3cCieF8YGAFD-AxJz-50" value="&lt;h6&gt;&lt;font style=&quot;font-size: 12px; font-weight: normal;&quot;&gt;&lt;span style=&quot;color: rgb(77, 81, 86); text-align: left;&quot;&gt;Spring Security is&amp;nbsp;&lt;/span&gt;&lt;span style=&quot;--tw-border-spacing-x: 0; --tw-border-spacing-y: 0; --tw-translate-x: 0; --tw-translate-y: 0; --tw-rotate: 0; --tw-skew-x: 0; --tw-skew-y: 0; --tw-scale-x: 1; --tw-scale-y: 1; --tw-pan-x: ; --tw-pan-y: ; --tw-pinch-zoom: ; --tw-scroll-snap-strictness: proximity; --tw-gradient-from-position: ; --tw-gradient-via-position: ; --tw-gradient-to-position: ; --tw-ordinal: ; --tw-slashed-zero: ; --tw-numeric-figure: ; --tw-numeric-spacing: ; --tw-numeric-fraction: ; --tw-ring-inset: ; --tw-ring-offset-width: 0px; --tw-ring-offset-color: #fff; --tw-ring-color: rgb(59 130 246 / .5); --tw-ring-offset-shadow: 0 0 #0000; --tw-ring-shadow: 0 0 #0000; --tw-shadow: 0 0 #0000; --tw-shadow-colored: 0 0 #0000; --tw-blur: ; --tw-brightness: ; --tw-contrast: ; --tw-grayscale: ; --tw-hue-rotate: ; --tw-invert: ; --tw-saturate: ; --tw-sepia: ; --tw-drop-shadow: ; --tw-backdrop-blur: ; --tw-backdrop-brightness: ; --tw-backdrop-contrast: ; --tw-backdrop-grayscale: ; --tw-backdrop-hue-rotate: ; --tw-backdrop-invert: ; --tw-backdrop-opacity: ; --tw-backdrop-saturate: ; --tw-backdrop-sepia: ; color: rgb(95, 99, 104); text-align: left;&quot;&gt;a framework that provides authentication, authorization, and protection against common attacks&lt;/span&gt;&lt;/font&gt;&lt;/h6&gt;" style="rounded=0;whiteSpace=wrap;html=1;fillColor=#f5f5f5;fontColor=#333333;strokeColor=#666666;" parent="1" vertex="1">
          <mxGeometry x="280" y="670" width="600" height="30" as="geometry" />
        </mxCell>
        <mxCell id="v_Z3cCieF8YGAFD-AxJz-52" value="&lt;p style=&quot;margin: 0px; font-variant-numeric: normal; font-variant-east-asian: normal; font-variant-alternates: normal; font-kerning: auto; font-optical-sizing: auto; font-feature-settings: normal; font-variation-settings: normal; font-variant-position: normal; font-stretch: normal; font-size: 16px; line-height: normal; -webkit-text-stroke-color: rgb(0, 0, 0); color: rgb(0, 0, 0); text-align: start;&quot; class=&quot;p1&quot;&gt;&lt;span style=&quot;font-kerning: none; font-size: 12px;&quot; class=&quot;s1&quot;&gt;Authentication, Authorisation, API Integration, OAuth, WebFlux, SMAL, LDAP, JWT, Multi-factor&lt;/span&gt;&lt;/p&gt;" style="whiteSpace=wrap;html=1;fillColor=#f8cecc;strokeColor=#b85450;rounded=0;" parent="1" vertex="1">
          <mxGeometry x="920" y="685" width="720" height="30" as="geometry" />
        </mxCell>
        <mxCell id="v_Z3cCieF8YGAFD-AxJz-67" value="" style="edgeStyle=orthogonalEdgeStyle;rounded=0;orthogonalLoop=1;jettySize=auto;html=1;" parent="1" source="v_Z3cCieF8YGAFD-AxJz-57" target="v_Z3cCieF8YGAFD-AxJz-66" edge="1">
          <mxGeometry relative="1" as="geometry" />
        </mxCell>
        <mxCell id="v_Z3cCieF8YGAFD-AxJz-57" value="&lt;font style=&quot;font-size: 12px;&quot;&gt;&lt;span style=&quot;color: rgb(77, 81, 86); font-family: arial, sans-serif; text-align: left;&quot;&gt;GraphQL is&amp;nbsp;&lt;/span&gt;&lt;span style=&quot;--tw-border-spacing-x: 0; --tw-border-spacing-y: 0; --tw-translate-x: 0; --tw-translate-y: 0; --tw-rotate: 0; --tw-skew-x: 0; --tw-skew-y: 0; --tw-scale-x: 1; --tw-scale-y: 1; --tw-pan-x: ; --tw-pan-y: ; --tw-pinch-zoom: ; --tw-scroll-snap-strictness: proximity; --tw-gradient-from-position: ; --tw-gradient-via-position: ; --tw-gradient-to-position: ; --tw-ordinal: ; --tw-slashed-zero: ; --tw-numeric-figure: ; --tw-numeric-spacing: ; --tw-numeric-fraction: ; --tw-ring-inset: ; --tw-ring-offset-width: 0px; --tw-ring-offset-color: #fff; --tw-ring-color: rgb(59 130 246 / .5); --tw-ring-offset-shadow: 0 0 #0000; --tw-ring-shadow: 0 0 #0000; --tw-shadow: 0 0 #0000; --tw-shadow-colored: 0 0 #0000; --tw-blur: ; --tw-brightness: ; --tw-contrast: ; --tw-grayscale: ; --tw-hue-rotate: ; --tw-invert: ; --tw-saturate: ; --tw-sepia: ; --tw-drop-shadow: ; --tw-backdrop-blur: ; --tw-backdrop-brightness: ; --tw-backdrop-contrast: ; --tw-backdrop-grayscale: ; --tw-backdrop-hue-rotate: ; --tw-backdrop-invert: ; --tw-backdrop-opacity: ; --tw-backdrop-saturate: ; --tw-backdrop-sepia: ; font-weight: bold; color: rgb(95, 99, 104); font-family: arial, sans-serif; text-align: left;&quot;&gt;a query language to retrieve data from a server&lt;/span&gt;&lt;span style=&quot;color: rgb(77, 81, 86); font-family: arial, sans-serif; text-align: left;&quot;&gt;. It is an alternative to REST, SOAP, or gRPC.&lt;/span&gt;&lt;/font&gt;" style="rounded=0;whiteSpace=wrap;html=1;fillColor=#f5f5f5;fontColor=#333333;strokeColor=#666666;" parent="1" vertex="1">
          <mxGeometry x="280" y="750" width="600" height="30" as="geometry" />
        </mxCell>
        <mxCell id="v_Z3cCieF8YGAFD-AxJz-60" value="&lt;p style=&quot;margin: 0px; font-variant-numeric: normal; font-variant-east-asian: normal; font-variant-alternates: normal; font-kerning: auto; font-optical-sizing: auto; font-feature-settings: normal; font-variation-settings: normal; font-variant-position: normal; font-stretch: normal; line-height: normal; font-family: Arial; -webkit-text-stroke-color: rgb(0, 0, 0); background-color: rgb(255, 255, 255); text-align: start;&quot; class=&quot;p1&quot;&gt;&lt;span style=&quot;font-kerning: none;&quot; class=&quot;s1&quot;&gt;&lt;b style=&quot;&quot;&gt;&lt;font style=&quot;font-size: 12px;&quot;&gt;@EnableConfigServer, @EnableEurekaServer, @EnableCircuitBreaker, @EnableFeignClients, @CircuitBreaker&lt;/font&gt;&lt;/b&gt;&lt;/span&gt;&lt;/p&gt;" style="rounded=0;whiteSpace=wrap;html=1;fillColor=#dae8fc;strokeColor=#6c8ebf;" parent="1" vertex="1">
          <mxGeometry x="920" y="560" width="720" height="30" as="geometry" />
        </mxCell>
        <mxCell id="v_Z3cCieF8YGAFD-AxJz-64" value="&lt;br&gt;&lt;div style=&quot;text-align: justify;&quot;&gt;&lt;b style=&quot;background-color: initial;&quot;&gt;@Secured, @PreAuthorize, @PostAuthorize, @PreFilter, @PostFilter&lt;/b&gt;&lt;/div&gt;&lt;div style=&quot;text-align: justify;&quot;&gt;&lt;br&gt;&lt;/div&gt;" style="rounded=0;whiteSpace=wrap;html=1;fillColor=#f8cecc;strokeColor=#b85450;" parent="1" vertex="1">
          <mxGeometry x="920" y="660" width="720" height="20" as="geometry" />
        </mxCell>
        <mxCell id="v_Z3cCieF8YGAFD-AxJz-70" value="" style="edgeStyle=orthogonalEdgeStyle;rounded=0;orthogonalLoop=1;jettySize=auto;html=1;" parent="1" source="v_Z3cCieF8YGAFD-AxJz-66" target="v_Z3cCieF8YGAFD-AxJz-69" edge="1">
          <mxGeometry relative="1" as="geometry" />
        </mxCell>
        <mxCell id="v_Z3cCieF8YGAFD-AxJz-72" value="" style="edgeStyle=orthogonalEdgeStyle;rounded=0;orthogonalLoop=1;jettySize=auto;html=1;" parent="1" source="v_Z3cCieF8YGAFD-AxJz-66" target="v_Z3cCieF8YGAFD-AxJz-71" edge="1">
          <mxGeometry relative="1" as="geometry" />
        </mxCell>
        <mxCell id="v_Z3cCieF8YGAFD-AxJz-66" value="&lt;p style=&quot;margin: 0px; font-variant-numeric: normal; font-variant-east-asian: normal; font-variant-alternates: normal; font-kerning: auto; font-optical-sizing: auto; font-feature-settings: normal; font-variation-settings: normal; font-variant-position: normal; font-stretch: normal; line-height: normal; font-family: Arial; -webkit-text-stroke-color: rgb(0, 0, 0); background-color: rgb(255, 255, 255); color: rgb(0, 0, 0); text-align: start;&quot; class=&quot;p1&quot;&gt;&lt;span style=&quot;font-kerning: none;&quot; class=&quot;s1&quot;&gt;Client-Only GraphQL,&amp;nbsp;&lt;/span&gt;Backend for frontend,&amp;nbsp;The Monolith,&lt;span class=&quot;Apple-converted-space&quot;&gt;&amp;nbsp;&lt;/span&gt;Multiple overlapping graphs&lt;span style=&quot;&quot; class=&quot;Apple-converted-space&quot;&gt;&amp;nbsp;&lt;/span&gt;&lt;/p&gt;" style="whiteSpace=wrap;html=1;fillColor=#f5f5f5;strokeColor=#666666;fontColor=#333333;rounded=0;" parent="1" vertex="1">
          <mxGeometry x="920" y="750" width="720" height="30" as="geometry" />
        </mxCell>
        <mxCell id="v_Z3cCieF8YGAFD-AxJz-69" value="Apps" style="whiteSpace=wrap;html=1;fillColor=#fff2cc;strokeColor=#d6b656;rounded=0;" parent="1" vertex="1">
          <mxGeometry x="1700" y="730" width="120" height="30" as="geometry" />
        </mxCell>
        <mxCell id="v_Z3cCieF8YGAFD-AxJz-71" value="Browser" style="whiteSpace=wrap;html=1;fillColor=#fff2cc;strokeColor=#d6b656;rounded=0;" parent="1" vertex="1">
          <mxGeometry x="1700" y="770" width="120" height="30" as="geometry" />
        </mxCell>
        <mxCell id="v_Z3cCieF8YGAFD-AxJz-77" value="" style="rounded=0;whiteSpace=wrap;html=1;fillColor=#d5e8d4;strokeColor=#82b366;" parent="1" vertex="1">
          <mxGeometry x="1875" y="705" width="140" height="80" as="geometry" />
        </mxCell>
        <mxCell id="v_Z3cCieF8YGAFD-AxJz-74" value="Defination" style="rounded=1;whiteSpace=wrap;html=1;" parent="1" vertex="1">
          <mxGeometry x="1885" y="715" width="120" height="30" as="geometry" />
        </mxCell>
        <mxCell id="v_Z3cCieF8YGAFD-AxJz-75" value="Resolver" style="rounded=1;whiteSpace=wrap;html=1;" parent="1" vertex="1">
          <mxGeometry x="1885" y="750" width="120" height="30" as="geometry" />
        </mxCell>
        <mxCell id="v_Z3cCieF8YGAFD-AxJz-78" value="" style="rounded=0;whiteSpace=wrap;html=1;fillColor=#d5e8d4;strokeColor=#82b366;" parent="1" vertex="1">
          <mxGeometry x="1875" y="790" width="140" height="80" as="geometry" />
        </mxCell>
        <mxCell id="v_Z3cCieF8YGAFD-AxJz-79" value="Defination" style="rounded=1;whiteSpace=wrap;html=1;" parent="1" vertex="1">
          <mxGeometry x="1885" y="800" width="120" height="30" as="geometry" />
        </mxCell>
        <mxCell id="v_Z3cCieF8YGAFD-AxJz-80" value="Resolver" style="rounded=1;whiteSpace=wrap;html=1;" parent="1" vertex="1">
          <mxGeometry x="1885" y="835" width="120" height="30" as="geometry" />
        </mxCell>
        <mxCell id="v_Z3cCieF8YGAFD-AxJz-83" value="" style="endArrow=classic;html=1;rounded=0;entryX=0;entryY=0.5;entryDx=0;entryDy=0;exitX=1;exitY=0.25;exitDx=0;exitDy=0;" parent="1" source="v_Z3cCieF8YGAFD-AxJz-71" target="v_Z3cCieF8YGAFD-AxJz-74" edge="1">
          <mxGeometry width="50" height="50" relative="1" as="geometry">
            <mxPoint x="1560" y="890" as="sourcePoint" />
            <mxPoint x="1610" y="840" as="targetPoint" />
          </mxGeometry>
        </mxCell>
        <mxCell id="v_Z3cCieF8YGAFD-AxJz-84" value="" style="endArrow=classic;html=1;rounded=0;entryX=0;entryY=0.25;entryDx=0;entryDy=0;exitX=1;exitY=0.75;exitDx=0;exitDy=0;" parent="1" source="v_Z3cCieF8YGAFD-AxJz-71" target="v_Z3cCieF8YGAFD-AxJz-80" edge="1">
          <mxGeometry width="50" height="50" relative="1" as="geometry">
            <mxPoint x="1560" y="890" as="sourcePoint" />
            <mxPoint x="1610" y="840" as="targetPoint" />
          </mxGeometry>
        </mxCell>
        <mxCell id="v_Z3cCieF8YGAFD-AxJz-85" value="" style="endArrow=classic;html=1;rounded=0;exitX=1;exitY=0.5;exitDx=0;exitDy=0;entryX=0;entryY=0;entryDx=0;entryDy=0;" parent="1" source="v_Z3cCieF8YGAFD-AxJz-69" target="v_Z3cCieF8YGAFD-AxJz-75" edge="1">
          <mxGeometry width="50" height="50" relative="1" as="geometry">
            <mxPoint x="1830" y="788" as="sourcePoint" />
            <mxPoint x="1880" y="745" as="targetPoint" />
          </mxGeometry>
        </mxCell>
        <mxCell id="v_Z3cCieF8YGAFD-AxJz-86" value="" style="endArrow=classic;html=1;rounded=0;entryX=0;entryY=0.25;entryDx=0;entryDy=0;exitX=1;exitY=0.5;exitDx=0;exitDy=0;" parent="1" source="v_Z3cCieF8YGAFD-AxJz-69" target="v_Z3cCieF8YGAFD-AxJz-79" edge="1">
          <mxGeometry width="50" height="50" relative="1" as="geometry">
            <mxPoint x="1840" y="798" as="sourcePoint" />
            <mxPoint x="1905" y="750" as="targetPoint" />
          </mxGeometry>
        </mxCell>
        <mxCell id="v_Z3cCieF8YGAFD-AxJz-87" value="Hypermedia as the Engine of state, The API return not only resource, it will provide action item&amp;nbsp;" style="rounded=0;whiteSpace=wrap;html=1;fillColor=#f5f5f5;fontColor=#333333;strokeColor=#666666;" parent="1" vertex="1">
          <mxGeometry x="280" y="1517.5" width="600" height="20" as="geometry" />
        </mxCell>
        <mxCell id="v_Z3cCieF8YGAFD-AxJz-190" value="" style="edgeStyle=orthogonalEdgeStyle;rounded=0;orthogonalLoop=1;jettySize=auto;html=1;" parent="1" source="v_Z3cCieF8YGAFD-AxJz-89" target="v_Z3cCieF8YGAFD-AxJz-189" edge="1">
          <mxGeometry relative="1" as="geometry" />
        </mxCell>
        <mxCell id="v_Z3cCieF8YGAFD-AxJz-89" value="Spring REST Docs" style="rounded=0;whiteSpace=wrap;html=1;" parent="1" vertex="1">
          <mxGeometry x="30" y="1460" width="140" height="30" as="geometry" />
        </mxCell>
        <mxCell id="v_Z3cCieF8YGAFD-AxJz-93" value="" style="edgeStyle=orthogonalEdgeStyle;rounded=0;orthogonalLoop=1;jettySize=auto;html=1;" parent="1" source="v_Z3cCieF8YGAFD-AxJz-90" target="v_Z3cCieF8YGAFD-AxJz-92" edge="1">
          <mxGeometry relative="1" as="geometry" />
        </mxCell>
        <mxCell id="v_Z3cCieF8YGAFD-AxJz-90" value="&lt;span style=&quot;font-family: &amp;quot;Open Sans&amp;quot;, sans-serif; text-align: start;&quot;&gt;&lt;font style=&quot;font-size: 12px;&quot;&gt;The goal is to apply to the &lt;b&gt;AI&lt;/b&gt; domain Spring &lt;b&gt;ecosystem&lt;/b&gt; design principles&lt;/font&gt;&lt;/span&gt;" style="rounded=0;whiteSpace=wrap;html=1;fillColor=#f5f5f5;fontColor=#333333;strokeColor=#666666;" parent="1" vertex="1">
          <mxGeometry x="280" y="962.5" width="600" height="25" as="geometry" />
        </mxCell>
        <mxCell id="v_Z3cCieF8YGAFD-AxJz-96" value="" style="edgeStyle=orthogonalEdgeStyle;rounded=0;orthogonalLoop=1;jettySize=auto;html=1;" parent="1" source="v_Z3cCieF8YGAFD-AxJz-92" target="v_Z3cCieF8YGAFD-AxJz-95" edge="1">
          <mxGeometry relative="1" as="geometry" />
        </mxCell>
        <mxCell id="v_Z3cCieF8YGAFD-AxJz-92" value="&lt;p style=&quot;margin: 0px; font-variant-numeric: normal; font-variant-east-asian: normal; font-variant-alternates: normal; font-kerning: auto; font-optical-sizing: auto; font-feature-settings: normal; font-variation-settings: normal; font-variant-position: normal; font-stretch: normal; line-height: normal; font-family: Arial; -webkit-text-stroke-color: rgb(0, 0, 0); background-color: rgb(255, 255, 255); color: rgb(0, 0, 0); text-align: start;&quot; class=&quot;p1&quot;&gt;&lt;span style=&quot;font-kerning: none;&quot; class=&quot;s1&quot;&gt;&lt;font style=&quot;font-size: 12px;&quot;&gt;OpenAI, Azure Open AI, Amazon Bedrock, Google Gemini, MistralAI, HuggingFace&lt;/font&gt;&lt;/span&gt;&lt;/p&gt;" style="rounded=0;whiteSpace=wrap;html=1;fillColor=#1ba1e2;fontColor=#ffffff;strokeColor=#006EAF;" parent="1" vertex="1">
          <mxGeometry x="920" y="962.5" width="720" height="25" as="geometry" />
        </mxCell>
        <mxCell id="v_Z3cCieF8YGAFD-AxJz-98" value="" style="edgeStyle=orthogonalEdgeStyle;rounded=0;orthogonalLoop=1;jettySize=auto;html=1;" parent="1" source="v_Z3cCieF8YGAFD-AxJz-95" target="v_Z3cCieF8YGAFD-AxJz-97" edge="1">
          <mxGeometry relative="1" as="geometry">
            <Array as="points">
              <mxPoint x="1830" y="970" />
              <mxPoint x="1830" y="970" />
            </Array>
          </mxGeometry>
        </mxCell>
        <mxCell id="v_Z3cCieF8YGAFD-AxJz-95" value="&lt;p style=&quot;margin: 0px; font-variant-numeric: normal; font-variant-east-asian: normal; font-variant-alternates: normal; font-kerning: auto; font-optical-sizing: auto; font-feature-settings: normal; font-variation-settings: normal; font-variant-position: normal; font-stretch: normal; line-height: normal; font-family: Arial; -webkit-text-stroke-color: rgb(0, 0, 0); background-color: rgb(255, 255, 255); color: rgb(0, 0, 0); text-align: start;&quot; class=&quot;p1&quot;&gt;&lt;span style=&quot;font-kerning: none;&quot; class=&quot;s1&quot;&gt;&lt;font style=&quot;font-size: 12px;&quot;&gt;Spring&lt;/font&gt;&lt;/span&gt;&lt;/p&gt;" style="rounded=0;whiteSpace=wrap;html=1;fillColor=#fff2cc;strokeColor=#d6b656;" parent="1" vertex="1">
          <mxGeometry x="1700" y="962.5" width="110" height="25" as="geometry" />
        </mxCell>
        <mxCell id="v_Z3cCieF8YGAFD-AxJz-102" value="" style="edgeStyle=orthogonalEdgeStyle;rounded=0;orthogonalLoop=1;jettySize=auto;html=1;" parent="1" source="v_Z3cCieF8YGAFD-AxJz-97" target="v_Z3cCieF8YGAFD-AxJz-101" edge="1">
          <mxGeometry relative="1" as="geometry" />
        </mxCell>
        <mxCell id="v_Z3cCieF8YGAFD-AxJz-103" style="edgeStyle=orthogonalEdgeStyle;rounded=0;orthogonalLoop=1;jettySize=auto;html=1;entryX=0;entryY=0.5;entryDx=0;entryDy=0;" parent="1" source="v_Z3cCieF8YGAFD-AxJz-97" target="v_Z3cCieF8YGAFD-AxJz-99" edge="1">
          <mxGeometry relative="1" as="geometry" />
        </mxCell>
        <mxCell id="v_Z3cCieF8YGAFD-AxJz-106" value="" style="edgeStyle=orthogonalEdgeStyle;rounded=0;orthogonalLoop=1;jettySize=auto;html=1;" parent="1" source="v_Z3cCieF8YGAFD-AxJz-97" target="v_Z3cCieF8YGAFD-AxJz-104" edge="1">
          <mxGeometry relative="1" as="geometry" />
        </mxCell>
        <mxCell id="v_Z3cCieF8YGAFD-AxJz-107" style="edgeStyle=orthogonalEdgeStyle;rounded=0;orthogonalLoop=1;jettySize=auto;html=1;entryX=0;entryY=0.75;entryDx=0;entryDy=0;" parent="1" source="v_Z3cCieF8YGAFD-AxJz-97" target="v_Z3cCieF8YGAFD-AxJz-105" edge="1">
          <mxGeometry relative="1" as="geometry" />
        </mxCell>
        <mxCell id="v_Z3cCieF8YGAFD-AxJz-108" value="" style="edgeStyle=orthogonalEdgeStyle;rounded=0;orthogonalLoop=1;jettySize=auto;html=1;" parent="1" source="v_Z3cCieF8YGAFD-AxJz-97" target="v_Z3cCieF8YGAFD-AxJz-95" edge="1">
          <mxGeometry relative="1" as="geometry" />
        </mxCell>
        <mxCell id="v_Z3cCieF8YGAFD-AxJz-97" value="&lt;p style=&quot;margin: 0px; font-variant-numeric: normal; font-variant-east-asian: normal; font-variant-alternates: normal; font-kerning: auto; font-optical-sizing: auto; font-feature-settings: normal; font-variation-settings: normal; font-variant-position: normal; font-stretch: normal; line-height: normal; font-family: Arial; -webkit-text-stroke-color: rgb(0, 0, 0); background-color: rgb(255, 255, 255); color: rgb(0, 0, 0); text-align: start;&quot; class=&quot;p1&quot;&gt;&lt;span style=&quot;font-kerning: none;&quot; class=&quot;s1&quot;&gt;&lt;font style=&quot;font-size: 12px;&quot;&gt;OpenAPI&lt;/font&gt;&lt;/span&gt;&lt;/p&gt;" style="rounded=0;whiteSpace=wrap;html=1;fillColor=#ffe6cc;strokeColor=#d79b00;" parent="1" vertex="1">
          <mxGeometry x="1840" y="962.5" width="110" height="25" as="geometry" />
        </mxCell>
        <mxCell id="v_Z3cCieF8YGAFD-AxJz-99" value="&lt;p style=&quot;margin: 0px; font-variant-numeric: normal; font-variant-east-asian: normal; font-variant-alternates: normal; font-kerning: auto; font-optical-sizing: auto; font-feature-settings: normal; font-variation-settings: normal; font-variant-position: normal; font-stretch: normal; font-size: 12px; line-height: normal; font-family: Arial; -webkit-text-stroke-color: rgb(0, 0, 0); background-color: rgb(255, 255, 255); color: rgb(0, 0, 0); text-align: start;&quot; class=&quot;p1&quot;&gt;&lt;span style=&quot;font-kerning: none; font-size: 12px;&quot; class=&quot;s1&quot;&gt;Query Answer&lt;/span&gt;&lt;/p&gt;" style="rounded=0;whiteSpace=wrap;html=1;fillColor=#dae8fc;strokeColor=#6c8ebf;labelPadding=0;fontSize=12;" parent="1" vertex="1">
          <mxGeometry x="2015" y="920" width="125" height="25" as="geometry" />
        </mxCell>
        <mxCell id="v_Z3cCieF8YGAFD-AxJz-101" value="&lt;p style=&quot;margin: 0px; font-variant-numeric: normal; font-variant-east-asian: normal; font-variant-alternates: normal; font-kerning: auto; font-optical-sizing: auto; font-feature-settings: normal; font-variation-settings: normal; font-variant-position: normal; font-stretch: normal; font-size: 12px; line-height: normal; font-family: Arial; -webkit-text-stroke-color: rgb(0, 0, 0); background-color: rgb(255, 255, 255); color: rgb(0, 0, 0); text-align: start;&quot; class=&quot;p1&quot;&gt;&lt;span style=&quot;font-kerning: none; font-size: 12px;&quot; class=&quot;s1&quot;&gt;Language Generation&lt;/span&gt;&lt;/p&gt;" style="rounded=0;whiteSpace=wrap;html=1;fillColor=#dae8fc;strokeColor=#6c8ebf;labelPadding=0;fontSize=12;" parent="1" vertex="1">
          <mxGeometry x="2015" y="950" width="125" height="25" as="geometry" />
        </mxCell>
        <mxCell id="v_Z3cCieF8YGAFD-AxJz-104" value="&lt;p style=&quot;margin: 0px; font-variant-numeric: normal; font-variant-east-asian: normal; font-variant-alternates: normal; font-kerning: auto; font-optical-sizing: auto; font-feature-settings: normal; font-variation-settings: normal; font-variant-position: normal; font-stretch: normal; font-size: 12px; line-height: normal; font-family: Arial; -webkit-text-stroke-color: rgb(0, 0, 0); background-color: rgb(255, 255, 255); color: rgb(0, 0, 0); text-align: start;&quot; class=&quot;p1&quot;&gt;&lt;span style=&quot;font-kerning: none; font-size: 12px;&quot; class=&quot;s1&quot;&gt;Chat GPT&lt;/span&gt;&lt;/p&gt;" style="rounded=0;whiteSpace=wrap;html=1;fillColor=#dae8fc;strokeColor=#6c8ebf;labelPadding=0;fontSize=12;" parent="1" vertex="1">
          <mxGeometry x="2015" y="985" width="125" height="25" as="geometry" />
        </mxCell>
        <mxCell id="v_Z3cCieF8YGAFD-AxJz-105" value="&lt;p style=&quot;margin: 0px; font-variant-numeric: normal; font-variant-east-asian: normal; font-variant-alternates: normal; font-kerning: auto; font-optical-sizing: auto; font-feature-settings: normal; font-variation-settings: normal; font-variant-position: normal; font-stretch: normal; font-size: 12px; line-height: normal; font-family: Arial; -webkit-text-stroke-color: rgb(0, 0, 0); background-color: rgb(255, 255, 255); color: rgb(0, 0, 0); text-align: start;&quot; class=&quot;p1&quot;&gt;&lt;span style=&quot;font-kerning: none; font-size: 12px;&quot; class=&quot;s1&quot;&gt;Analysis&amp;nbsp;&lt;/span&gt;&lt;/p&gt;" style="rounded=0;whiteSpace=wrap;html=1;fillColor=#dae8fc;strokeColor=#6c8ebf;labelPadding=0;fontSize=12;" parent="1" vertex="1">
          <mxGeometry x="2015" y="1015" width="125" height="25" as="geometry" />
        </mxCell>
        <mxCell id="v_Z3cCieF8YGAFD-AxJz-112" value="" style="edgeStyle=orthogonalEdgeStyle;rounded=0;orthogonalLoop=1;jettySize=auto;html=1;" parent="1" source="v_Z3cCieF8YGAFD-AxJz-109" target="v_Z3cCieF8YGAFD-AxJz-111" edge="1">
          <mxGeometry relative="1" as="geometry" />
        </mxCell>
        <mxCell id="v_Z3cCieF8YGAFD-AxJz-116" value="" style="edgeStyle=orthogonalEdgeStyle;rounded=0;orthogonalLoop=1;jettySize=auto;html=1;" parent="1" source="v_Z3cCieF8YGAFD-AxJz-109" target="v_Z3cCieF8YGAFD-AxJz-114" edge="1">
          <mxGeometry relative="1" as="geometry" />
        </mxCell>
        <mxCell id="v_Z3cCieF8YGAFD-AxJz-109" value="&lt;font style=&quot;font-size: 12px;&quot;&gt;&lt;span style=&quot;--tw-border-spacing-x: 0; --tw-border-spacing-y: 0; --tw-translate-x: 0; --tw-translate-y: 0; --tw-rotate: 0; --tw-skew-x: 0; --tw-skew-y: 0; --tw-scale-x: 1; --tw-scale-y: 1; --tw-pan-x: ; --tw-pan-y: ; --tw-pinch-zoom: ; --tw-scroll-snap-strictness: proximity; --tw-gradient-from-position: ; --tw-gradient-via-position: ; --tw-gradient-to-position: ; --tw-ordinal: ; --tw-slashed-zero: ; --tw-numeric-figure: ; --tw-numeric-spacing: ; --tw-numeric-fraction: ; --tw-ring-inset: ; --tw-ring-offset-width: 0px; --tw-ring-offset-color: #fff; --tw-ring-color: rgb(59 130 246 / .5); --tw-ring-offset-shadow: 0 0 #0000; --tw-ring-shadow: 0 0 #0000; --tw-shadow: 0 0 #0000; --tw-shadow-colored: 0 0 #0000; --tw-blur: ; --tw-brightness: ; --tw-contrast: ; --tw-grayscale: ; --tw-hue-rotate: ; --tw-invert: ; --tw-saturate: ; --tw-sepia: ; --tw-drop-shadow: ; --tw-backdrop-blur: ; --tw-backdrop-brightness: ; --tw-backdrop-contrast: ; --tw-backdrop-grayscale: ; --tw-backdrop-hue-rotate: ; --tw-backdrop-invert: ; --tw-backdrop-opacity: ; --tw-backdrop-saturate: ; --tw-backdrop-sepia: ; color: rgb(95, 99, 104); font-family: arial, sans-serif; text-align: left;&quot;&gt;used to&lt;b&gt; publish and subscribe&lt;/b&gt; the messages based on the fault-tolerant&lt;/span&gt;&lt;span style=&quot;color: rgb(77, 81, 86); font-family: arial, sans-serif; text-align: left;&quot;&gt;&amp;nbsp;messaging system&lt;/span&gt;&lt;/font&gt;" style="rounded=0;whiteSpace=wrap;html=1;fillColor=#f5f5f5;fontColor=#333333;strokeColor=#666666;" parent="1" vertex="1">
          <mxGeometry x="280" y="1075" width="600" height="20" as="geometry" />
        </mxCell>
        <mxCell id="v_Z3cCieF8YGAFD-AxJz-113" value="" style="edgeStyle=orthogonalEdgeStyle;rounded=0;orthogonalLoop=1;jettySize=auto;html=1;" parent="1" source="v_Z3cCieF8YGAFD-AxJz-111" target="v_Z3cCieF8YGAFD-AxJz-109" edge="1">
          <mxGeometry relative="1" as="geometry" />
        </mxCell>
        <mxCell id="v_Z3cCieF8YGAFD-AxJz-117" value="" style="edgeStyle=orthogonalEdgeStyle;rounded=0;orthogonalLoop=1;jettySize=auto;html=1;" parent="1" source="v_Z3cCieF8YGAFD-AxJz-111" target="v_Z3cCieF8YGAFD-AxJz-115" edge="1">
          <mxGeometry relative="1" as="geometry" />
        </mxCell>
        <mxCell id="v_Z3cCieF8YGAFD-AxJz-111" value="Kafka Cluster, Producer, Consumer, Topic, segment, Patrician&amp;nbsp;" style="whiteSpace=wrap;html=1;fillColor=#e3c800;strokeColor=#B09500;fontColor=#000000;rounded=0;" parent="1" vertex="1">
          <mxGeometry x="920" y="1087.5" width="720" height="20" as="geometry" />
        </mxCell>
        <mxCell id="v_Z3cCieF8YGAFD-AxJz-114" value="&lt;p style=&quot;margin: 0px; font-variant-numeric: normal; font-variant-east-asian: normal; font-variant-alternates: normal; font-kerning: auto; font-optical-sizing: auto; font-feature-settings: normal; font-variation-settings: normal; font-variant-position: normal; font-stretch: normal; line-height: normal; -webkit-text-stroke-color: rgb(0, 0, 0); text-align: start;&quot; class=&quot;p1&quot;&gt;&lt;span style=&quot;font-kerning: none;&quot; class=&quot;s1&quot;&gt;@EnableKafka,&amp;nbsp;&lt;/span&gt;&lt;span style=&quot;background-color: initial;&quot;&gt;@KafkaListener KafkaTemplate&lt;/span&gt;&lt;/p&gt;" style="rounded=0;whiteSpace=wrap;html=1;fillColor=#e3c800;fontColor=#000000;strokeColor=#B09500;" parent="1" vertex="1">
          <mxGeometry x="920" y="1062.5" width="720" height="20" as="geometry" />
        </mxCell>
        <mxCell id="v_Z3cCieF8YGAFD-AxJz-132" style="edgeStyle=orthogonalEdgeStyle;rounded=0;orthogonalLoop=1;jettySize=auto;html=1;entryX=0;entryY=0.5;entryDx=0;entryDy=0;" parent="1" source="v_Z3cCieF8YGAFD-AxJz-115" target="v_Z3cCieF8YGAFD-AxJz-119" edge="1">
          <mxGeometry relative="1" as="geometry" />
        </mxCell>
        <mxCell id="v_Z3cCieF8YGAFD-AxJz-115" value="Spring Kafka-Endpoint API - Producer" style="rounded=0;whiteSpace=wrap;html=1;fillColor=#f0a30a;fontColor=#000000;strokeColor=#BD7000;" parent="1" vertex="1">
          <mxGeometry x="1680" y="1077.5" width="140" height="30" as="geometry" />
        </mxCell>
        <mxCell id="v_Z3cCieF8YGAFD-AxJz-133" value="" style="edgeStyle=orthogonalEdgeStyle;rounded=0;orthogonalLoop=1;jettySize=auto;html=1;" parent="1" source="v_Z3cCieF8YGAFD-AxJz-119" target="v_Z3cCieF8YGAFD-AxJz-128" edge="1">
          <mxGeometry relative="1" as="geometry" />
        </mxCell>
        <mxCell id="v_Z3cCieF8YGAFD-AxJz-119" value="&lt;div&gt;&lt;br&gt;&lt;/div&gt;" style="rounded=0;whiteSpace=wrap;html=1;fillColor=#d5e8d4;strokeColor=#82b366;" parent="1" vertex="1">
          <mxGeometry x="1850" y="1057.5" width="140" height="172.5" as="geometry" />
        </mxCell>
        <mxCell id="v_Z3cCieF8YGAFD-AxJz-120" value="Broker" style="rounded=1;whiteSpace=wrap;html=1;" parent="1" vertex="1">
          <mxGeometry x="1885" y="1072.5" width="80" height="17.5" as="geometry" />
        </mxCell>
        <mxCell id="v_Z3cCieF8YGAFD-AxJz-121" value="Broker" style="rounded=1;whiteSpace=wrap;html=1;" parent="1" vertex="1">
          <mxGeometry x="1885" y="1095" width="80" height="20" as="geometry" />
        </mxCell>
        <mxCell id="v_Z3cCieF8YGAFD-AxJz-122" value="Broker" style="rounded=1;whiteSpace=wrap;html=1;" parent="1" vertex="1">
          <mxGeometry x="1885" y="1120" width="80" height="20" as="geometry" />
        </mxCell>
        <mxCell id="v_Z3cCieF8YGAFD-AxJz-124" value="" style="edgeStyle=orthogonalEdgeStyle;rounded=0;orthogonalLoop=1;jettySize=auto;html=1;" parent="1" source="v_Z3cCieF8YGAFD-AxJz-123" target="v_Z3cCieF8YGAFD-AxJz-122" edge="1">
          <mxGeometry relative="1" as="geometry" />
        </mxCell>
        <mxCell id="v_Z3cCieF8YGAFD-AxJz-123" value="Zookeeper" style="image;aspect=fixed;perimeter=ellipsePerimeter;html=1;align=center;shadow=0;dashed=0;fontColor=#4277BB;labelBackgroundColor=default;fontSize=12;spacingTop=3;image=img/lib/ibm/management/cluster_management.svg;" parent="1" vertex="1">
          <mxGeometry x="1910" y="1160" width="30" height="30" as="geometry" />
        </mxCell>
        <mxCell id="v_Z3cCieF8YGAFD-AxJz-128" value="Spring Kafka-Topic&amp;nbsp; consumer" style="rounded=0;whiteSpace=wrap;html=1;fillColor=#f0a30a;fontColor=#000000;strokeColor=#BD7000;" parent="1" vertex="1">
          <mxGeometry x="2020" y="1082.5" width="140" height="30" as="geometry" />
        </mxCell>
        <mxCell id="v_Z3cCieF8YGAFD-AxJz-137" value="" style="edgeStyle=orthogonalEdgeStyle;rounded=0;orthogonalLoop=1;jettySize=auto;html=1;" parent="1" source="v_Z3cCieF8YGAFD-AxJz-134" target="v_Z3cCieF8YGAFD-AxJz-136" edge="1">
          <mxGeometry relative="1" as="geometry" />
        </mxCell>
        <mxCell id="v_Z3cCieF8YGAFD-AxJz-134" value="&lt;h6&gt;&lt;span style=&quot;text-align: start; background-color: rgb(255, 255, 255); font-weight: normal;&quot;&gt;&lt;font face=&quot;Helvetica&quot; style=&quot;font-size: 12px;&quot;&gt;A flow encapsulates a sequence of steps that guide a user through the execution of some business task&lt;/font&gt;&lt;/span&gt;&lt;/h6&gt;" style="rounded=0;whiteSpace=wrap;html=1;fillColor=#f5f5f5;fontColor=#333333;strokeColor=#666666;" parent="1" vertex="1">
          <mxGeometry x="280" y="1365" width="600" height="20" as="geometry" />
        </mxCell>
        <mxCell id="v_Z3cCieF8YGAFD-AxJz-136" value="&lt;h6&gt;&lt;span style=&quot;text-align: start; background-color: rgb(255, 255, 255); font-weight: normal;&quot;&gt;&lt;font face=&quot;Helvetica&quot; style=&quot;font-size: 12px;&quot;&gt;define flow to excute - View State, Transaction, flow excute&lt;/font&gt;&lt;/span&gt;&lt;/h6&gt;" style="rounded=0;whiteSpace=wrap;html=1;fillColor=#f5f5f5;fontColor=#333333;strokeColor=#666666;" parent="1" vertex="1">
          <mxGeometry x="960" y="1365" width="680" height="20" as="geometry" />
        </mxCell>
        <mxCell id="v_Z3cCieF8YGAFD-AxJz-138" value="Still supprts consuming WSDL and read XSD&amp;nbsp;" style="rounded=0;whiteSpace=wrap;html=1;fillColor=#f5f5f5;fontColor=#333333;strokeColor=#666666;" parent="1" vertex="1">
          <mxGeometry x="280" y="1415" width="600" height="20" as="geometry" />
        </mxCell>
        <mxCell id="v_Z3cCieF8YGAFD-AxJz-147" value="" style="edgeStyle=orthogonalEdgeStyle;rounded=0;orthogonalLoop=1;jettySize=auto;html=1;" parent="1" source="v_Z3cCieF8YGAFD-AxJz-140" target="v_Z3cCieF8YGAFD-AxJz-146" edge="1">
          <mxGeometry relative="1" as="geometry" />
        </mxCell>
        <mxCell id="v_Z3cCieF8YGAFD-AxJz-187" style="edgeStyle=orthogonalEdgeStyle;rounded=0;orthogonalLoop=1;jettySize=auto;html=1;entryX=0;entryY=0.5;entryDx=0;entryDy=0;" parent="1" source="v_Z3cCieF8YGAFD-AxJz-140" target="v_Z3cCieF8YGAFD-AxJz-186" edge="1">
          <mxGeometry relative="1" as="geometry" />
        </mxCell>
        <mxCell id="v_Z3cCieF8YGAFD-AxJz-140" value="&lt;font style=&quot;font-size: 12px;&quot;&gt;&lt;span style=&quot;color: rgb(31, 31, 31); font-family: &amp;quot;Google Sans&amp;quot;, arial, sans-serif; text-align: left;&quot;&gt;WebFlux is&amp;nbsp;&lt;/span&gt;&lt;span style=&quot;--tw-border-spacing-x: 0; --tw-border-spacing-y: 0; --tw-translate-x: 0; --tw-translate-y: 0; --tw-rotate: 0; --tw-skew-x: 0; --tw-skew-y: 0; --tw-scale-x: 1; --tw-scale-y: 1; --tw-pan-x: ; --tw-pan-y: ; --tw-pinch-zoom: ; --tw-scroll-snap-strictness: proximity; --tw-gradient-from-position: ; --tw-gradient-via-position: ; --tw-gradient-to-position: ; --tw-ordinal: ; --tw-slashed-zero: ; --tw-numeric-figure: ; --tw-numeric-spacing: ; --tw-numeric-fraction: ; --tw-ring-inset: ; --tw-ring-offset-width: 0px; --tw-ring-offset-color: #fff; --tw-ring-color: rgb(59 130 246 / .5); --tw-ring-offset-shadow: 0 0 #0000; --tw-ring-shadow: 0 0 #0000; --tw-shadow: 0 0 #0000; --tw-shadow-colored: 0 0 #0000; --tw-blur: ; --tw-brightness: ; --tw-contrast: ; --tw-grayscale: ; --tw-hue-rotate: ; --tw-invert: ; --tw-saturate: ; --tw-sepia: ; --tw-drop-shadow: ; --tw-backdrop-blur: ; --tw-backdrop-brightness: ; --tw-backdrop-contrast: ; --tw-backdrop-grayscale: ; --tw-backdrop-hue-rotate: ; --tw-backdrop-invert: ; --tw-backdrop-opacity: ; --tw-backdrop-saturate: ; --tw-backdrop-sepia: ; color: rgb(4, 12, 40); font-family: &amp;quot;Google Sans&amp;quot;, arial, sans-serif; text-align: left;&quot;&gt;a&amp;nbsp;&lt;span style=&quot;--tw-border-spacing-x: 0; --tw-border-spacing-y: 0; --tw-translate-x: 0; --tw-translate-y: 0; --tw-rotate: 0; --tw-skew-x: 0; --tw-skew-y: 0; --tw-scale-x: 1; --tw-scale-y: 1; --tw-pan-x: ; --tw-pan-y: ; --tw-pinch-zoom: ; --tw-scroll-snap-strictness: proximity; --tw-gradient-from-position: ; --tw-gradient-via-position: ; --tw-gradient-to-position: ; --tw-ordinal: ; --tw-slashed-zero: ; --tw-numeric-figure: ; --tw-numeric-spacing: ; --tw-numeric-fraction: ; --tw-ring-inset: ; --tw-ring-offset-width: 0px; --tw-ring-offset-color: #fff; --tw-ring-color: rgb(59 130 246 / .5); --tw-ring-offset-shadow: 0 0 #0000; --tw-ring-shadow: 0 0 #0000; --tw-shadow: 0 0 #0000; --tw-shadow-colored: 0 0 #0000; --tw-blur: ; --tw-brightness: ; --tw-contrast: ; --tw-grayscale: ; --tw-hue-rotate: ; --tw-invert: ; --tw-saturate: ; --tw-sepia: ; --tw-drop-shadow: ; --tw-backdrop-blur: ; --tw-backdrop-brightness: ; --tw-backdrop-contrast: ; --tw-backdrop-grayscale: ; --tw-backdrop-hue-rotate: ; --tw-backdrop-invert: ; --tw-backdrop-opacity: ; --tw-backdrop-saturate: ; --tw-backdrop-sepia: ; outline: 0px;&quot; tabindex=&quot;0&quot; role=&quot;tooltip&quot;&gt;&lt;span style=&quot;--tw-border-spacing-x: 0; --tw-border-spacing-y: 0; --tw-translate-x: 0; --tw-translate-y: 0; --tw-rotate: 0; --tw-skew-x: 0; --tw-skew-y: 0; --tw-scale-x: 1; --tw-scale-y: 1; --tw-pan-x: ; --tw-pan-y: ; --tw-pinch-zoom: ; --tw-scroll-snap-strictness: proximity; --tw-gradient-from-position: ; --tw-gradient-via-position: ; --tw-gradient-to-position: ; --tw-ordinal: ; --tw-slashed-zero: ; --tw-numeric-figure: ; --tw-numeric-spacing: ; --tw-numeric-fraction: ; --tw-ring-inset: ; --tw-ring-offset-width: 0px; --tw-ring-offset-color: #fff; --tw-ring-color: rgb(59 130 246 / .5); --tw-ring-offset-shadow: 0 0 #0000; --tw-ring-shadow: 0 0 #0000; --tw-shadow: 0 0 #0000; --tw-shadow-colored: 0 0 #0000; --tw-blur: ; --tw-brightness: ; --tw-contrast: ; --tw-grayscale: ; --tw-hue-rotate: ; --tw-invert: ; --tw-saturate: ; --tw-sepia: ; --tw-drop-shadow: ; --tw-backdrop-blur: ; --tw-backdrop-brightness: ; --tw-backdrop-contrast: ; --tw-backdrop-grayscale: ; --tw-backdrop-hue-rotate: ; --tw-backdrop-invert: ; --tw-backdrop-opacity: ; --tw-backdrop-saturate: ; --tw-backdrop-sepia: ; cursor: pointer; outline: 0px;&quot; data-ved=&quot;2ahUKEwi7-P-Ny9iFAxU3QkEAHV5pBasQmpgGegQIHBAD&quot; tabindex=&quot;0&quot; role=&quot;button&quot; data-width=&quot;250&quot; data-theme=&quot;0&quot; data-send-open-event=&quot;true&quot; data-hover-open-delay=&quot;500&quot; data-hover-hide-delay=&quot;1000&quot; data-extra-container-classes=&quot;ZLo7Eb&quot; data-enable-toggle-animation=&quot;true&quot; class=&quot;c5aZPb&quot;&gt;&lt;span style=&quot;--tw-border-spacing-x: 0; --tw-border-spacing-y: 0; --tw-translate-x: 0; --tw-translate-y: 0; --tw-rotate: 0; --tw-skew-x: 0; --tw-skew-y: 0; --tw-scale-x: 1; --tw-scale-y: 1; --tw-pan-x: ; --tw-pan-y: ; --tw-pinch-zoom: ; --tw-scroll-snap-strictness: proximity; --tw-gradient-from-position: ; --tw-gradient-via-position: ; --tw-gradient-to-position: ; --tw-ordinal: ; --tw-slashed-zero: ; --tw-numeric-figure: ; --tw-numeric-spacing: ; --tw-numeric-fraction: ; --tw-ring-inset: ; --tw-ring-offset-width: 0px; --tw-ring-offset-color: #fff; --tw-ring-color: rgb(59 130 246 / .5); --tw-ring-offset-shadow: 0 0 #0000; --tw-ring-shadow: 0 0 #0000; --tw-shadow: 0 0 #0000; --tw-shadow-colored: 0 0 #0000; --tw-blur: ; --tw-brightness: ; --tw-contrast: ; --tw-grayscale: ; --tw-hue-rotate: ; --tw-invert: ; --tw-saturate: ; --tw-sepia: ; --tw-drop-shadow: ; --tw-backdrop-blur: ; --tw-backdrop-brightness: ; --tw-backdrop-contrast: ; --tw-backdrop-grayscale: ; --tw-backdrop-hue-rotate: ; --tw-backdrop-invert: ; --tw-backdrop-opacity: ; --tw-backdrop-saturate: ; --tw-backdrop-sepia: ; border-bottom: 1px dashed rgba(4, 12, 40, 0.5);&quot; data-segment-text=&quot;reactive&quot; data-bubble-link=&quot;&quot; class=&quot;JPfdse&quot;&gt;reactive&lt;/span&gt;&lt;/span&gt;&lt;/span&gt;, non-blocking web framework for building modern, scalable web applications&lt;/span&gt;&lt;/font&gt;" style="rounded=0;whiteSpace=wrap;html=1;fillColor=#f5f5f5;fontColor=#333333;strokeColor=#666666;" parent="1" vertex="1">
          <mxGeometry x="280" y="1265" width="600" height="20" as="geometry" />
        </mxCell>
        <mxCell id="v_Z3cCieF8YGAFD-AxJz-143" value="" style="outlineConnect=0;dashed=0;verticalLabelPosition=bottom;verticalAlign=top;align=center;html=1;shape=mxgraph.aws3.api_gateway;fillColor=#D9A741;gradientColor=none;" parent="1" vertex="1">
          <mxGeometry x="1905" y="595" width="30" height="20" as="geometry" />
        </mxCell>
        <mxCell id="v_Z3cCieF8YGAFD-AxJz-144" style="edgeStyle=orthogonalEdgeStyle;rounded=0;orthogonalLoop=1;jettySize=auto;html=1;exitX=0.35;exitY=0.5;exitDx=0;exitDy=0;exitPerimeter=0;entryX=0.5;entryY=1;entryDx=0;entryDy=0;entryPerimeter=0;" parent="1" source="v_Z3cCieF8YGAFD-AxJz-143" target="v_Z3cCieF8YGAFD-AxJz-143" edge="1">
          <mxGeometry relative="1" as="geometry" />
        </mxCell>
        <mxCell id="v_Z3cCieF8YGAFD-AxJz-183" value="" style="edgeStyle=orthogonalEdgeStyle;rounded=0;orthogonalLoop=1;jettySize=auto;html=1;entryX=0;entryY=0.25;entryDx=0;entryDy=0;" parent="1" source="v_Z3cCieF8YGAFD-AxJz-146" target="v_Z3cCieF8YGAFD-AxJz-151" edge="1">
          <mxGeometry relative="1" as="geometry" />
        </mxCell>
        <mxCell id="v_Z3cCieF8YGAFD-AxJz-146" value="&lt;div style=&quot;text-align: left;&quot;&gt;&lt;span style=&quot;background-color: initial;&quot;&gt;&lt;font face=&quot;Google Sans, arial, sans-serif&quot; color=&quot;#1f1f1f&quot;&gt;Mono, Flux, WebFluxSecurity, WebSocket, WebSocketClient, Api load balancing&lt;/font&gt;&lt;/span&gt;&lt;/div&gt;" style="rounded=0;whiteSpace=wrap;html=1;fillColor=#f5f5f5;fontColor=#333333;strokeColor=#666666;" parent="1" vertex="1">
          <mxGeometry x="970" y="1285" width="660" height="20" as="geometry" />
        </mxCell>
        <mxCell id="v_Z3cCieF8YGAFD-AxJz-159" value="" style="edgeStyle=orthogonalEdgeStyle;rounded=0;orthogonalLoop=1;jettySize=auto;html=1;" parent="1" source="v_Z3cCieF8YGAFD-AxJz-150" target="v_Z3cCieF8YGAFD-AxJz-154" edge="1">
          <mxGeometry relative="1" as="geometry" />
        </mxCell>
        <mxCell id="v_Z3cCieF8YGAFD-AxJz-150" value="Request 1" style="rounded=0;whiteSpace=wrap;html=1;fillColor=#fff2cc;strokeColor=#d6b656;" parent="1" vertex="1">
          <mxGeometry x="1660" y="1255" width="120" height="10" as="geometry" />
        </mxCell>
        <mxCell id="v_Z3cCieF8YGAFD-AxJz-160" value="" style="edgeStyle=orthogonalEdgeStyle;rounded=0;orthogonalLoop=1;jettySize=auto;html=1;" parent="1" source="v_Z3cCieF8YGAFD-AxJz-151" target="v_Z3cCieF8YGAFD-AxJz-154" edge="1">
          <mxGeometry relative="1" as="geometry" />
        </mxCell>
        <mxCell id="v_Z3cCieF8YGAFD-AxJz-151" value="Request 2" style="rounded=0;whiteSpace=wrap;html=1;fillColor=#fff2cc;strokeColor=#d6b656;" parent="1" vertex="1">
          <mxGeometry x="1660" y="1275" width="120" height="10" as="geometry" />
        </mxCell>
        <mxCell id="v_Z3cCieF8YGAFD-AxJz-161" value="" style="edgeStyle=orthogonalEdgeStyle;rounded=0;orthogonalLoop=1;jettySize=auto;html=1;" parent="1" source="v_Z3cCieF8YGAFD-AxJz-152" target="v_Z3cCieF8YGAFD-AxJz-154" edge="1">
          <mxGeometry relative="1" as="geometry" />
        </mxCell>
        <mxCell id="v_Z3cCieF8YGAFD-AxJz-152" value="&amp;nbsp;Multiple Request 1" style="rounded=0;whiteSpace=wrap;html=1;fillColor=#fff2cc;strokeColor=#d6b656;" parent="1" vertex="1">
          <mxGeometry x="1660" y="1300" width="120" height="10" as="geometry" />
        </mxCell>
        <mxCell id="v_Z3cCieF8YGAFD-AxJz-162" value="" style="edgeStyle=orthogonalEdgeStyle;rounded=0;orthogonalLoop=1;jettySize=auto;html=1;" parent="1" source="v_Z3cCieF8YGAFD-AxJz-153" target="v_Z3cCieF8YGAFD-AxJz-154" edge="1">
          <mxGeometry relative="1" as="geometry" />
        </mxCell>
        <mxCell id="v_Z3cCieF8YGAFD-AxJz-153" value="Multiple Request 2" style="rounded=0;whiteSpace=wrap;html=1;fillColor=#fff2cc;strokeColor=#d6b656;" parent="1" vertex="1">
          <mxGeometry x="1660" y="1330" width="120" height="10" as="geometry" />
        </mxCell>
        <mxCell id="v_Z3cCieF8YGAFD-AxJz-154" value="" style="rounded=0;whiteSpace=wrap;html=1;fillColor=#d5e8d4;strokeColor=#82b366;" parent="1" vertex="1">
          <mxGeometry x="1820" y="1245" width="110" height="120" as="geometry" />
        </mxCell>
        <mxCell id="v_Z3cCieF8YGAFD-AxJz-182" value="" style="edgeStyle=orthogonalEdgeStyle;rounded=0;orthogonalLoop=1;jettySize=auto;html=1;" parent="1" source="v_Z3cCieF8YGAFD-AxJz-167" target="v_Z3cCieF8YGAFD-AxJz-153" edge="1">
          <mxGeometry relative="1" as="geometry" />
        </mxCell>
        <mxCell id="v_Z3cCieF8YGAFD-AxJz-167" value="Event Loop (thead pool)" style="text;html=1;align=center;verticalAlign=middle;whiteSpace=wrap;rounded=0;" parent="1" vertex="1">
          <mxGeometry x="1880" y="1330" width="60" height="20" as="geometry" />
        </mxCell>
        <mxCell id="v_Z3cCieF8YGAFD-AxJz-168" value="&lt;h6&gt;&lt;span style=&quot;font-weight: normal;&quot;&gt;&lt;font style=&quot;font-size: 9px;&quot;&gt;Call back execution&lt;br&gt;&lt;/font&gt;&lt;font style=&quot;font-size: 9px;&quot;&gt;Thread Proccessin&lt;/font&gt;&lt;/span&gt;&lt;/h6&gt;" style="text;html=1;align=center;verticalAlign=middle;whiteSpace=wrap;rounded=0;" parent="1" vertex="1">
          <mxGeometry x="1830" y="1300" width="40" height="30" as="geometry" />
        </mxCell>
        <mxCell id="v_Z3cCieF8YGAFD-AxJz-169" value="" style="endArrow=none;html=1;rounded=0;" parent="1" edge="1">
          <mxGeometry width="50" height="50" relative="1" as="geometry">
            <mxPoint x="1980" y="1380" as="sourcePoint" />
            <mxPoint x="1980" y="1250" as="targetPoint" />
          </mxGeometry>
        </mxCell>
        <mxCell id="v_Z3cCieF8YGAFD-AxJz-170" value="" style="endArrow=classic;html=1;rounded=0;" parent="1" edge="1">
          <mxGeometry relative="1" as="geometry">
            <mxPoint x="1930" y="1279.5" as="sourcePoint" />
            <mxPoint x="2060" y="1280" as="targetPoint" />
          </mxGeometry>
        </mxCell>
        <mxCell id="v_Z3cCieF8YGAFD-AxJz-171" value="Event Handler" style="edgeLabel;resizable=0;html=1;;align=center;verticalAlign=middle;" parent="v_Z3cCieF8YGAFD-AxJz-170" connectable="0" vertex="1">
          <mxGeometry relative="1" as="geometry" />
        </mxCell>
        <mxCell id="v_Z3cCieF8YGAFD-AxJz-174" value="DB or External systems" style="rounded=0;whiteSpace=wrap;html=1;fillColor=#f8cecc;strokeColor=#b85450;" parent="1" vertex="1">
          <mxGeometry x="2060" y="1245" width="60" height="135" as="geometry" />
        </mxCell>
        <mxCell id="v_Z3cCieF8YGAFD-AxJz-175" value="" style="endArrow=classic;html=1;rounded=0;exitX=-0.017;exitY=0.704;exitDx=0;exitDy=0;entryX=1;entryY=0.817;entryDx=0;entryDy=0;entryPerimeter=0;exitPerimeter=0;" parent="1" source="v_Z3cCieF8YGAFD-AxJz-174" target="v_Z3cCieF8YGAFD-AxJz-154" edge="1">
          <mxGeometry relative="1" as="geometry">
            <mxPoint x="1890" y="1360" as="sourcePoint" />
            <mxPoint x="2050" y="1360" as="targetPoint" />
          </mxGeometry>
        </mxCell>
        <mxCell id="v_Z3cCieF8YGAFD-AxJz-176" value="Label" style="edgeLabel;resizable=0;html=1;;align=center;verticalAlign=middle;" parent="v_Z3cCieF8YGAFD-AxJz-175" connectable="0" vertex="1">
          <mxGeometry relative="1" as="geometry" />
        </mxCell>
        <mxCell id="v_Z3cCieF8YGAFD-AxJz-178" value="Event" style="edgeLabel;html=1;align=center;verticalAlign=middle;resizable=0;points=[];" parent="v_Z3cCieF8YGAFD-AxJz-175" vertex="1" connectable="0">
          <mxGeometry x="0.0229" y="-1" relative="1" as="geometry">
            <mxPoint as="offset" />
          </mxGeometry>
        </mxCell>
        <mxCell id="v_Z3cCieF8YGAFD-AxJz-186" value="&lt;div style=&quot;text-align: left;&quot;&gt;&lt;span style=&quot;background-color: initial;&quot;&gt;&lt;font face=&quot;Google Sans, arial, sans-serif&quot; color=&quot;#1f1f1f&quot;&gt;Non-blocking thread (thread pool)&amp;nbsp;&lt;/font&gt;&lt;/span&gt;&lt;/div&gt;" style="rounded=0;whiteSpace=wrap;html=1;fillColor=#f5f5f5;fontColor=#333333;strokeColor=#666666;" parent="1" vertex="1">
          <mxGeometry x="970" y="1260" width="660" height="20" as="geometry" />
        </mxCell>
        <mxCell id="v_Z3cCieF8YGAFD-AxJz-188" value="" style="image;aspect=fixed;perimeter=ellipsePerimeter;html=1;align=center;shadow=0;dashed=0;fontColor=#4277BB;labelBackgroundColor=default;fontSize=12;spacingTop=3;image=img/lib/ibm/vpc/LoadBalancerPool.svg;" parent="1" vertex="1">
          <mxGeometry x="1885" y="1255" width="30" height="30" as="geometry" />
        </mxCell>
        <mxCell id="v_Z3cCieF8YGAFD-AxJz-189" value="Swagger, Rest API documentation&amp;nbsp;" style="rounded=0;whiteSpace=wrap;html=1;fillColor=#f5f5f5;fontColor=#333333;strokeColor=#666666;" parent="1" vertex="1">
          <mxGeometry x="280" y="1465" width="600" height="20" as="geometry" />
        </mxCell>
        <mxCell id="5piM_4dwHb6M98anPViZ-1" value="&lt;h1 style=&quot;margin-top: 0px; font-size: 18px;&quot;&gt;&lt;font style=&quot;font-size: 18px;&quot;&gt;https://spring.io/projects/spring-boot&lt;br&gt;&lt;/font&gt;&lt;/h1&gt;&lt;h1 style=&quot;margin-top: 0px; font-size: 18px;&quot;&gt;Important topics to know :&lt;/h1&gt;&lt;p&gt;What is dependency injection? or Ioc Inversion of control&lt;/p&gt;&lt;p&gt;&lt;span style=&quot;background-color: initial;&quot;&gt;https://microservices.io/&lt;/span&gt;&lt;br&gt;&lt;/p&gt;&lt;p&gt;https://12factor.net/&lt;br&gt;&lt;/p&gt;&lt;p&gt;https://en.wikipedia.org/wiki/SOLID&lt;br&gt;&lt;/p&gt;&lt;p&gt;&lt;br&gt;&lt;/p&gt;" style="text;html=1;whiteSpace=wrap;overflow=hidden;rounded=0;" parent="1" vertex="1">
          <mxGeometry x="1140" y="50" width="760" height="360" as="geometry" />
        </mxCell>
        <mxCell id="5piM_4dwHb6M98anPViZ-2" value="" style="edgeStyle=orthogonalEdgeStyle;rounded=0;orthogonalLoop=1;jettySize=auto;html=1;" parent="1" source="5piM_4dwHb6M98anPViZ-3" target="5piM_4dwHb6M98anPViZ-4" edge="1">
          <mxGeometry relative="1" as="geometry" />
        </mxCell>
        <mxCell id="5piM_4dwHb6M98anPViZ-3" value="Spring boot cloud data flow" style="rounded=0;whiteSpace=wrap;html=1;" parent="1" vertex="1">
          <mxGeometry x="30" y="1570" width="140" height="25" as="geometry" />
        </mxCell>
        <mxCell id="5piM_4dwHb6M98anPViZ-4" value="Data analytics is present in spring dashboard, and is used in EKS, cloud foundry&amp;nbsp; &amp;nbsp;" style="rounded=0;whiteSpace=wrap;html=1;fillColor=#f5f5f5;fontColor=#333333;strokeColor=#666666;" parent="1" vertex="1">
          <mxGeometry x="280" y="1572.5" width="600" height="20" as="geometry" />
        </mxCell>
        <mxCell id="00MlgkEym0gz_d_jyDn1-1" value="&lt;h1 style=&quot;margin-top: 0px;&quot;&gt;&lt;span style=&quot;background-color: initial; font-size: 12px; font-weight: normal;&quot;&gt;Spring boot other feature&lt;/span&gt;&lt;span style=&quot;background-color: initial; font-size: 12px; font-weight: normal;&quot; class=&quot;Apple-converted-space&quot;&gt;&amp;nbsp;&lt;/span&gt;&lt;br&gt;&lt;/h1&gt;&lt;p style=&quot;margin: 0px; font-variant-numeric: normal; font-variant-east-asian: normal; font-variant-alternates: normal; font-kerning: auto; font-optical-sizing: auto; font-feature-settings: normal; font-variation-settings: normal; font-variant-position: normal; font-stretch: normal; line-height: normal;&quot; class=&quot;p1&quot;&gt;Other frameworks&lt;/p&gt;&lt;p style=&quot;margin: 0px; font-variant-numeric: normal; font-variant-east-asian: normal; font-variant-alternates: normal; font-kerning: auto; font-optical-sizing: auto; font-feature-settings: normal; font-variation-settings: normal; font-variant-position: normal; font-stretch: normal; line-height: normal;&quot; class=&quot;p1&quot;&gt;Vert.x&lt;/p&gt;&lt;p style=&quot;margin: 0px; font-variant-numeric: normal; font-variant-east-asian: normal; font-variant-alternates: normal; font-kerning: auto; font-optical-sizing: auto; font-feature-settings: normal; font-variation-settings: normal; font-variant-position: normal; font-stretch: normal; line-height: normal;&quot; class=&quot;p1&quot;&gt;Jetty&lt;span class=&quot;Apple-converted-space&quot;&gt;&amp;nbsp;&lt;/span&gt;&lt;/p&gt;&lt;p style=&quot;margin: 0px; font-variant-numeric: normal; font-variant-east-asian: normal; font-variant-alternates: normal; font-kerning: auto; font-optical-sizing: auto; font-feature-settings: normal; font-variation-settings: normal; font-variant-position: normal; font-stretch: normal; line-height: normal;&quot; class=&quot;p1&quot;&gt;Web framework, etc&lt;/p&gt;&lt;p style=&quot;margin: 0px; font-variant-numeric: normal; font-variant-east-asian: normal; font-variant-alternates: normal; font-kerning: auto; font-optical-sizing: auto; font-feature-settings: normal; font-variation-settings: normal; font-variant-position: normal; font-stretch: normal; line-height: normal; min-height: 14px;&quot; class=&quot;p2&quot;&gt;&lt;br&gt;&lt;/p&gt;&lt;p style=&quot;margin: 0px; font-variant-numeric: normal; font-variant-east-asian: normal; font-variant-alternates: normal; font-kerning: auto; font-optical-sizing: auto; font-feature-settings: normal; font-variation-settings: normal; font-variant-position: normal; font-stretch: normal; line-height: normal; -webkit-text-stroke-color: rgb(27, 93, 135); min-height: 14px;&quot; class=&quot;p5&quot;&gt;&lt;br&gt;&lt;/p&gt;&lt;p style=&quot;margin: 0px; font-variant-numeric: normal; font-variant-east-asian: normal; font-variant-alternates: normal; font-kerning: auto; font-optical-sizing: auto; font-feature-settings: normal; font-variation-settings: normal; font-variant-position: normal; font-stretch: normal; line-height: normal; -webkit-text-stroke-color: rgb(27, 93, 135); min-height: 14px;&quot; class=&quot;p5&quot;&gt;&lt;br&gt;&lt;/p&gt;&lt;p style=&quot;margin: 0px; font-variant-numeric: normal; font-variant-east-asian: normal; font-variant-alternates: normal; font-kerning: auto; font-optical-sizing: auto; font-feature-settings: normal; font-variation-settings: normal; font-variant-position: normal; font-stretch: normal; line-height: normal; -webkit-text-stroke-color: rgb(27, 93, 135);&quot; class=&quot;p4&quot;&gt;&lt;b&gt;Spring Session&lt;/b&gt;: cache with Apche library support&lt;/p&gt;&lt;p style=&quot;margin: 0px; font-variant-numeric: normal; font-variant-east-asian: normal; font-variant-alternates: normal; font-kerning: auto; font-optical-sizing: auto; font-feature-settings: normal; font-variation-settings: normal; font-variant-position: normal; font-stretch: normal; line-height: normal; -webkit-text-stroke-color: rgb(27, 93, 135);&quot; class=&quot;p4&quot;&gt;&lt;b&gt;Spring Integration&lt;/b&gt; ( all features and facilities in spring Boot, e.g.: client connect, filters, API layer, messaging, etc)&lt;/p&gt;&lt;p style=&quot;margin: 0px; font-variant-numeric: normal; font-variant-east-asian: normal; font-variant-alternates: normal; font-kerning: auto; font-optical-sizing: auto; font-feature-settings: normal; font-variation-settings: normal; font-variant-position: normal; font-stretch: normal; line-height: normal; -webkit-text-stroke-color: rgb(27, 93, 135);&quot; class=&quot;p4&quot;&gt;&lt;b&gt;Spring Hateoas&lt;/b&gt; - Hypermedia to enrich the representation; it uses Spring MVC and WebFlux ( URI templates).&lt;/p&gt;&lt;p style=&quot;margin: 0px; font-variant-numeric: normal; font-variant-east-asian: normal; font-variant-alternates: normal; font-kerning: auto; font-optical-sizing: auto; font-feature-settings: normal; font-variation-settings: normal; font-variant-position: normal; font-stretch: normal; line-height: normal; -webkit-text-stroke-color: rgb(0, 0, 0); background-color: rgb(255, 255, 255);&quot; class=&quot;p6&quot;&gt;&lt;span style=&quot;font-kerning: none; color: rgb(32, 99, 42); -webkit-text-stroke-color: rgb(32, 99, 42);&quot; class=&quot;s2&quot;&gt;&lt;a href=&quot;https://cloud.spring.io/spring-cloud-dataflow/&quot;&gt;&lt;b&gt;Spring Cloud Data Flow&lt;/b&gt;&lt;/a&gt;&lt;/span&gt;&lt;span style=&quot;font-kerning: none;&quot; class=&quot;s1&quot;&gt;,&lt;span class=&quot;Apple-converted-space&quot;&gt;&amp;nbsp; &lt;/span&gt;Spring Flo (UI integrated library), is a data pipeline that gives real-time analytics&lt;/span&gt;&lt;/p&gt;&lt;p style=&quot;margin: 0px; font-variant-numeric: normal; font-variant-east-asian: normal; font-variant-alternates: normal; font-kerning: auto; font-optical-sizing: auto; font-feature-settings: normal; font-variation-settings: normal; font-variant-position: normal; font-stretch: normal; line-height: normal; -webkit-text-stroke-color: rgb(0, 0, 0); background-color: rgb(255, 255, 255);&quot; class=&quot;p6&quot;&gt;&lt;span style=&quot;font-kerning: none;&quot; class=&quot;s1&quot;&gt;&lt;b&gt;Spring cloud consu&lt;/b&gt;l: service discovery, load balancing ( Eureka server)&lt;/span&gt;&lt;/p&gt;&lt;p style=&quot;margin: 0px; font-variant-numeric: normal; font-variant-east-asian: normal; font-variant-alternates: normal; font-kerning: auto; font-optical-sizing: auto; font-feature-settings: normal; font-variation-settings: normal; font-variant-position: normal; font-stretch: normal; line-height: normal; -webkit-text-stroke-color: rgb(0, 0, 0); background-color: rgb(255, 255, 255);&quot; class=&quot;p6&quot;&gt;&lt;span style=&quot;font-kerning: none;&quot; class=&quot;s1&quot;&gt;&lt;b&gt;Spring Apache pulsar, Kafka, and AMQP&lt;/b&gt; = event drive architecture, message communication&lt;/span&gt;&lt;/p&gt;&lt;p style=&quot;margin: 0px; font-variant-numeric: normal; font-variant-east-asian: normal; font-variant-alternates: normal; font-kerning: auto; font-optical-sizing: auto; font-feature-settings: normal; font-variation-settings: normal; font-variant-position: normal; font-stretch: normal; line-height: normal; -webkit-text-stroke-color: rgb(0, 0, 0); background-color: rgb(255, 255, 255);&quot; class=&quot;p6&quot;&gt;&lt;span style=&quot;font-kerning: none;&quot; class=&quot;s1&quot;&gt;&lt;b&gt;Spring boot LDAP&lt;/b&gt; - Spring Date-Connect Flat Database&lt;/span&gt;&lt;/p&gt;&lt;p style=&quot;margin: 0px; font-variant-numeric: normal; font-variant-east-asian: normal; font-variant-alternates: normal; font-kerning: auto; font-optical-sizing: auto; font-feature-settings: normal; font-variation-settings: normal; font-variant-position: normal; font-stretch: normal; line-height: normal; -webkit-text-stroke-color: rgb(0, 0, 0); background-color: rgb(255, 255, 255);&quot; class=&quot;p6&quot;&gt;&lt;span style=&quot;font-kerning: none;&quot; class=&quot;s1&quot;&gt;&lt;b&gt;Spring Shell&lt;/b&gt; command to execute (script exceptions) &lt;span class=&quot;Apple-converted-space&quot;&gt;&amp;nbsp;&lt;/span&gt;&lt;/span&gt;&lt;/p&gt;" style="text;html=1;whiteSpace=wrap;overflow=hidden;rounded=0;" parent="1" vertex="1">
          <mxGeometry x="20" y="1670" width="840" height="290" as="geometry" />
        </mxCell>
      </root>
    </mxGraphModel>
  </diagram>
</mxfile>
